<?xml version="1.0" encoding="utf-8"?>
<!-- Generator: Adobe Illustrator 22.1.0, SVG Export Plug-In . SVG Version: 6.00 Build 0)  -->
<svg version="1.1" id="Layer_1" xmlns="http://www.w3.org/2000/svg" xmlns:xlink="http://www.w3.org/1999/xlink" x="0px" y="0px"
	 viewBox="0 0 31.2 31.2" style="enable-background:new 0 0 31.2 31.2;" xml:space="preserve">
<style type="text/css">
	.st0{fill:none;}
</style>
<title>Account</title>
<path class="st0" d="M31.2,15.6C31.2,7,24.2,0,15.6,0C7,0,0,7,0,15.6c0,4.6,2.1,8.9,5.5,11.9h0.2c2.8,2.4,6.3,3.7,10,3.6
	c3.6,0,7.1-1.2,9.9-3.5c0.1-0.1,0.3-0.2,0.3-0.3c3.4-3,5.3-7.3,5.3-11.8L31.2,15.6z M1.4,15.6c0-7.8,6.4-14.2,14.2-14.2
	s14.2,6.4,14.2,14.2c0,3.7-1.4,7.2-4,9.9c-0.6-3-2.5-5.7-5.2-7.2c2.1-2.7,1.6-6.6-1.1-8.7s-6.6-1.6-8.7,1.1
	c-0.8,1.1-1.3,2.4-1.3,3.8c0,1.4,0.5,2.7,1.3,3.8c-2.7,1.5-4.7,4.1-5.3,7.2C2.9,22.9,1.4,19.3,1.4,15.6z M10.8,14.5
	c0.1-2.6,2.2-4.7,4.8-4.8c2.7,0,4.8,2.1,4.8,4.8l0,0c0.1,2.6-2,4.7-4.6,4.8c-0.1,0-0.1,0-0.2,0C12.9,19.3,10.8,17.2,10.8,14.5
	L10.8,14.5z M6.8,26.7c0.3-3.1,2.2-5.9,5-7.3c1.1,0.9,2.4,1.3,3.8,1.3c1.4,0,2.8-0.5,3.9-1.3c2.8,1.4,4.7,4.1,5.1,7.2
	C19.4,30.8,12,30.9,6.8,26.7z"/>
</svg>
