<svg id="Layer_1" data-name="Layer 1" xmlns="http://www.w3.org/2000/svg" viewBox="0 0 31.45 31.45">
  <defs>
    <style>
      .cls-1 {
        fill: #989898;
      }

      .cls-2 {
        fill: #f6bb2f;
      }
    </style>
  </defs>
  <title>Admin_Onclick</title>
  <path class="cls-1" d="M31.64,15.91c0,.22.08.47.13.72A5.4,5.4,0,0,0,31.64,15.91Z" transform="translate(-0.32 -0.36)"/>
  <g>
    <path class="cls-2" d="M29.15.36h-22A2.62,2.62,0,0,0,4.51,3v8.39h1V3A1.57,1.57,0,0,1,7.13,1.41h22A1.57,1.57,0,0,1,30.72,3V19.23a1.57,1.57,0,0,1-1.57,1.58H22.33v1h6.82a2.62,2.62,0,0,0,2.62-2.62V3A2.62,2.62,0,0,0,29.15.36Zm0,0" transform="translate(-0.32 -0.36)"/>
    <rect class="cls-2" x="6.29" y="2.1" width="1.05" height="1.05"/>
    <rect class="cls-2" x="8.39" y="2.1" width="1.05" height="1.05"/>
    <rect class="cls-2" x="10.48" y="2.1" width="1.05" height="1.05"/>
    <rect class="cls-2" x="6.29" y="4.19" width="23.07" height="1.05"/>
    <rect class="cls-2" x="6.29" y="6.29" width="5.24" height="1.05"/>
    <rect class="cls-2" x="6.29" y="8.39" width="3.15" height="1.05"/>
    <path class="cls-2" d="M15.52,10.32V9.27A.52.52,0,0,0,15,8.75H12.9a.52.52,0,0,0-.53.52V9.8h2.1v.52Zm0,0" transform="translate(-0.32 -0.36)"/>
    <path class="cls-2" d="M19.71,12.94V7.7a.52.52,0,0,0-.52-.52h-2.1a.52.52,0,0,0-.52.52v3.67h1.05V8.22h1v4.72Zm0,0" transform="translate(-0.32 -0.36)"/>
    <path class="cls-2" d="M22.86,18.19h-.53v1h7.34v-1H28.1V7.7a.52.52,0,0,0-.52-.52h-2.1A.52.52,0,0,0,25,7.7V18.19H23.91V11.37a.52.52,0,0,0-.53-.52H21.29a.52.52,0,0,0-.53.52v4.72h1v-4.2h1.05ZM26,8.22h1.05v10H26Zm0,0" transform="translate(-0.32 -0.36)"/>
    <path class="cls-2" d="M10.8,10.85A10.49,10.49,0,1,0,21.29,21.33,10.48,10.48,0,0,0,10.8,10.85Zm0,19.92a9.44,9.44,0,0,1-.52-18.86v9.45l0,.14a0,0,0,0,0,0,0v0a.65.65,0,0,0,.1.15h0l6.66,6.66a9.36,9.36,0,0,1-6.29,2.41Zm7-3.15-5.76-5.77h8.15a9.3,9.3,0,0,1-2.39,5.77Zm-6.5-6.81v-8.9a9.44,9.44,0,0,1,8.89,8.9Zm0,0" transform="translate(-0.32 -0.36)"/>
  </g>
</svg>
