<svg id="Layer_1" data-name="Layer 1" xmlns="http://www.w3.org/2000/svg" viewBox="0 0 32.04 29.38">
  <defs>
    <style>
      .cls-1 {
        fill: #989898;
      }

      .cls-2 {
        fill: #2da854;
      }

      .cls-3 {
        fill: #f6bb2f;
      }

      .cls-4 {
        fill: #557cbd;
      }

      .cls-5 {
        fill: #e94537;
      }
    </style>
  </defs>
  <title>Demo_Onclick</title>
  <path class="cls-1" d="M31.64,15.91c0,.22.08.47.13.72A5.4,5.4,0,0,0,31.64,15.91Z" transform="translate(0.04 -1.03)"/>
  <path d="M16,28.32a6.49,6.49,0,0,1-8.67.77l-.05,0c0-.06,0-.1,0-.14l1-1.72L9.78,24.6a.41.41,0,0,1,.05-.09c.06-.07.1-.07.12,0a.94.94,0,0,0,.33.75.9.9,0,0,0,1.35-.22c.24-.38.46-.78.68-1.17L15,19.27c.48-.81.95-1.63,1.42-2.45a.34.34,0,0,1,.34-.2h9.2a.89.89,0,0,0,.8-.42.83.83,0,0,0,.06-.88.88.88,0,0,0-.76-.51H15.71a1,1,0,0,1-.24,0c-.08-.07,0-.13,0-.18l.42-.73c.87-1.5,1.74-3,2.6-4.5,0-.07.07-.14.16-.16a5,5,0,0,1,.55,0h6.24a6.07,6.07,0,0,1,1.27.12.33.33,0,0,1,.21.07,6.57,6.57,0,0,1,1.48.54,6.35,6.35,0,0,1,3.5,4.78A6.45,6.45,0,0,1,27,22l-.09,0c-.05.06-.12.06-.19.08a6.09,6.09,0,0,1-1.2.11H19.92a.23.23,0,0,0-.23.14l-.46.79c-.5.84-1,1.7-1.48,2.55-.39.66-.74,1.34-1.17,2-.12.18-.26.35-.39.51A.43.43,0,0,1,16,28.32Z" transform="translate(0.04 -1.03)"/>
  <path class="cls-2" d="M18.63,9.26l-1.45,2.51-1.63,2.82a1.62,1.62,0,0,0-.1.18c-.07.07-.16.05-.24.05h-6c-.11,0-.06-.11,0-.17l.49-.85,2.34-4,.28-.48.55-.95,1.7-2.95a15.75,15.75,0,0,1,1.19-1.92A1,1,0,0,1,16,3.12,7.23,7.23,0,0,1,17.34,2a6.49,6.49,0,0,1,4-1A6.46,6.46,0,0,1,27,9.36a.13.13,0,0,0,0,.06,13.23,13.23,0,0,0-2.74-.15H20.82s0-.1,0-.14c.22-.4.46-.79.69-1.19a1,1,0,0,0,.16-.77A.93.93,0,0,0,21,6.45a.89.89,0,0,0-.9.42c-.39.64-.75,1.29-1.12,1.94l-.2.34S18.68,9.24,18.63,9.26Z" transform="translate(0.04 -1.03)"/>
  <path class="cls-3" d="M12.3,9.27l-.85,1.49L9.18,14.69l0,.08c-.06.06-.14,0-.21,0H6.1A.9.9,0,1,0,6,16.62H7.82a.67.67,0,0,1,.2,0c.08.05,0,.1,0,.14l-.54.94-1.79,3.1A6.56,6.56,0,0,0,5.2,21.9c0,.05,0,.11-.09.13a6.45,6.45,0,0,1-5-5,6.27,6.27,0,0,1,2-6A6.13,6.13,0,0,1,5,9.42l.07,0a.31.31,0,0,1,.18-.07,5.75,5.75,0,0,1,1.16-.1h5.7A.17.17,0,0,1,12.3,9.27Z" transform="translate(0.04 -1.03)"/>
  <path class="cls-4" d="M20.86,22.18h3.86A10.28,10.28,0,0,0,26.94,22a7.71,7.71,0,0,1,.24,1.16,6.08,6.08,0,0,1-.35,3,6.16,6.16,0,0,1-4.8,4.1,6.24,6.24,0,0,1-5.92-1.88L16,28.32a13.27,13.27,0,0,0,1.54-2.38c.52-.89,1-1.78,1.54-2.67,0,0,.05-.1.09-.13s.09.07.12.12l.61,1a.92.92,0,0,0,1,.49.91.91,0,0,0,.6-1.36l-.64-1.11S20.83,22.24,20.86,22.18Z" transform="translate(0.04 -1.03)"/>
  <path class="cls-5" d="M11.2,9.27H6.58a6.44,6.44,0,0,0-1.38.12H5.11a6.74,6.74,0,0,1-.28-2A6.4,6.4,0,0,1,10,1.17,6.33,6.33,0,0,1,15.91,3l.12.12A16.38,16.38,0,0,0,14.3,5.83c-.47.8-.93,1.6-1.39,2.4l-.06.09c-.07,0-.09-.08-.12-.14l-.61-1a.93.93,0,0,0-1-.49A.91.91,0,0,0,10.52,8l.63,1.1C11.18,9.16,11.22,9.2,11.2,9.27Z" transform="translate(0.04 -1.03)"/>
  <path class="cls-2" d="M5.11,22a20.91,20.91,0,0,1,1.77-3.34c.37-.68.77-1.35,1.16-2,0-.05.1,0,.16,0h6c.11,0,.14,0,.09.14a5.26,5.26,0,0,1-.27.47c-.9,1.56-1.79,3.12-2.69,4.67-.4.69-.81,1.38-1.21,2.08a1.2,1.2,0,0,0-.19.45s0,.07-.05.07-.06,0-.06,0c-.2.34-.39.69-.58,1C8.63,26.69,8,27.83,7.35,29l0,.08A6.36,6.36,0,0,1,5,25.56a6.44,6.44,0,0,1,.06-3.43S5.1,22.07,5.11,22Z" transform="translate(0.04 -1.03)"/>
</svg>
