<svg id="Layer_1" data-name="Layer 1" xmlns="http://www.w3.org/2000/svg" viewBox="0 0 31.84 29.2">
  <defs>
    <style>
      .cls-1 {
        fill: #989898;
      }

      .cls-2 {
        fill: #7b7c7b;
      }

      .cls-3 {
        fill: #a7a8a7;
      }

      .cls-4 {
        fill: #e5e5e5;
      }

      .cls-5 {
        fill: #8e8e8e;
      }

      .cls-6 {
        fill: #adadad;
      }
    </style>
  </defs>
  <title>Demo</title>
  <path class="cls-1" d="M31.64,15.91c0,.22.08.47.13.72A5.4,5.4,0,0,0,31.64,15.91Z" transform="translate(-0.16 -1.14)"/>
  <path class="cls-2" d="M16.13,28.25A6.24,6.24,0,0,1,13.3,30a6.3,6.3,0,0,1-5.79-1l0-.05c0-.06,0-.1,0-.14.31-.57.64-1.14,1-1.7l1.45-2.58a.47.47,0,0,1,.06-.09c0-.07.09-.07.11,0a1,1,0,0,0,.33.75A.89.89,0,0,0,11.75,25c.24-.38.46-.78.68-1.17l2.66-4.59,1.4-2.44a.35.35,0,0,1,.35-.2c3,0,6.09,0,9.14,0a.86.86,0,0,0,.79-.41.81.81,0,0,0,.06-.87.87.87,0,0,0-.75-.51H15.81a1,1,0,0,1-.24,0c-.08-.07,0-.13,0-.18l.42-.73c.86-1.49,1.73-3,2.58-4.47,0-.06.07-.14.16-.15a5,5,0,0,1,.55,0h6.2a5.91,5.91,0,0,1,1.26.12.38.38,0,0,1,.21.07,6.55,6.55,0,0,1,5,5.29A6.41,6.41,0,0,1,27.06,22L27,22a.27.27,0,0,1-.19.08,5.93,5.93,0,0,1-1.19.12H20a.22.22,0,0,0-.22.14c-.15.26-.3.52-.46.78-.5.85-1,1.7-1.47,2.54-.39.66-.74,1.34-1.17,2a4.5,4.5,0,0,1-.39.5A.37.37,0,0,1,16.13,28.25Z" transform="translate(-0.16 -1.14)"/>
  <path class="cls-3" d="M18.71,9.31,17.27,11.8l-1.62,2.81a1.62,1.62,0,0,0-.1.18c-.07.07-.15.05-.23.05h-6c-.11,0-.06-.11,0-.17l.49-.84c.77-1.35,1.55-2.69,2.32-4l.28-.48.54-.94,1.7-2.94a16.23,16.23,0,0,1,1.18-1.9,1,1,0,0,1,.3-.32,7.53,7.53,0,0,1,1.31-1.08,6.39,6.39,0,0,1,9.7,4.17A6.31,6.31,0,0,1,27,9.41s0,0,0,.06a13.76,13.76,0,0,0-2.72-.15H20.89c0-.06,0-.1,0-.15L21.61,8a1,1,0,0,0,.17-.77,1,1,0,0,0-.76-.7.89.89,0,0,0-.9.42c-.38.63-.74,1.28-1.11,1.92l-.2.34A.18.18,0,0,1,18.71,9.31Z" transform="translate(-0.16 -1.14)"/>
  <path class="cls-4" d="M12.42,9.33c-.28.49-.56,1-.85,1.48l-2.25,3.9,0,.08c-.06.06-.14,0-.21,0H6.26a.9.9,0,0,0-.08,1.8c.6,0,1.19,0,1.79,0a.62.62,0,0,1,.19,0c.09.05,0,.1,0,.14l-.54.93L5.84,20.8a6.85,6.85,0,0,0-.48,1.07c0,.05,0,.12-.09.14a6.43,6.43,0,0,1-5-5,6.26,6.26,0,0,1,2-6,6.14,6.14,0,0,1,3-1.54l.08,0a.29.29,0,0,1,.18-.07,5.53,5.53,0,0,1,1.15-.1h5.66C12.32,9.28,12.38,9.27,12.42,9.33Z" transform="translate(-0.16 -1.14)"/>
  <path class="cls-5" d="M20.93,22.15h3.84A9.55,9.55,0,0,0,27,22a9.56,9.56,0,0,1,.24,1.16,6.42,6.42,0,0,1-5.12,7.05,6.26,6.26,0,0,1-5.89-1.87l-.07-.08a13.62,13.62,0,0,0,1.53-2.36l1.53-2.65s0-.1.09-.13.09.07.12.12l.6,1a.91.91,0,1,0,1.6-.87L21,22.31S20.9,22.21,20.93,22.15Z" transform="translate(-0.16 -1.14)"/>
  <path class="cls-6" d="M11.32,9.32H6.74a7,7,0,0,0-1.37.12H5.28a6.41,6.41,0,0,1,4.81-8.18A6.32,6.32,0,0,1,16,3.09a1.36,1.36,0,0,1,.12.12,16.18,16.18,0,0,0-1.71,2.7c-.47.78-.92,1.58-1.38,2.38L13,8.38c-.07,0-.09-.08-.12-.14-.2-.35-.41-.69-.61-1a.93.93,0,0,0-1-.49.92.92,0,0,0-.6,1.37c.2.36.42.73.63,1.09C11.3,9.21,11.35,9.26,11.32,9.32Z" transform="translate(-0.16 -1.14)"/>
  <path class="cls-3" d="M5.27,22A22.06,22.06,0,0,1,7,18.68c.37-.67.77-1.33,1.15-2a.2.2,0,0,1,.16,0h6c.11,0,.13,0,.09.14s-.18.31-.27.47l-2.68,4.64L10.29,24a1.2,1.2,0,0,0-.19.45s0,.07,0,.07-.05,0-.06,0c-.19.34-.38.68-.58,1-.63,1.13-1.27,2.26-1.91,3.39a.59.59,0,0,1,0,.08A6.27,6.27,0,0,1,5.2,25.52a6.37,6.37,0,0,1,0-3.41A.36.36,0,0,0,5.27,22Z" transform="translate(-0.16 -1.14)"/>
</svg>
