<svg id="Layer_1" data-name="Layer 1" xmlns="http://www.w3.org/2000/svg" viewBox="0 0 26.39 31.66">
  <defs>
    <style>
      .cls-1 {
        fill: #e94537;
      }
    </style>
  </defs>
  <title>PricingSuggestion_Onclick</title>
  <g>
    <path class="cls-1" d="M21.93,21.34a8.12,8.12,0,1,0-10.84.09c1.29,1.29,1.17,4,1.14,4.07a.49.49,0,0,0,.15.38.53.53,0,0,0,.35.15H20.2a.47.47,0,0,0,.35-.15.56.56,0,0,0,.15-.38s-.15-2.78,1.14-4.07Zm-.76-.67s-.09.08-.09.11A6.86,6.86,0,0,0,19.7,25H13.23a6.77,6.77,0,0,0-1.46-4.33,7.13,7.13,0,1,1,9.4,0Z" transform="translate(-3.26 -0.34)"/>
    <path class="cls-1" d="M20.93,27.81a1.24,1.24,0,0,0-1.23-1.23H13.2a1.23,1.23,0,1,0,0,2.46h6.47A1.26,1.26,0,0,0,20.93,27.81ZM19.7,28H13.2a.23.23,0,0,1-.23-.24.21.21,0,0,1,.23-.23h6.47a.23.23,0,0,1,.24.23A.21.21,0,0,1,19.7,28Z" transform="translate(-3.26 -0.34)"/>
    <path class="cls-1" d="M18.74,29.54H14.17a1.23,1.23,0,1,0,0,2.46h4.57A1.24,1.24,0,0,0,20,30.77,1.22,1.22,0,0,0,18.74,29.54Zm0,1.43H14.17a.23.23,0,0,1-.24-.23.21.21,0,0,1,.24-.23h4.57a.23.23,0,1,1,0,.46Z" transform="translate(-3.26 -0.34)"/>
    <path class="cls-1" d="M17,4.24V.84a.51.51,0,0,0-.5-.5.51.51,0,0,0-.5.5v3.4a.51.51,0,0,0,.5.49A.49.49,0,0,0,17,4.24Z" transform="translate(-3.26 -0.34)"/>
    <path class="cls-1" d="M24.74,2.86a.46.46,0,0,0-.67.12L22.19,5.79a.48.48,0,0,0,.12.7.45.45,0,0,0,.26.09A.46.46,0,0,0,23,6.34l1.88-2.81A.46.46,0,0,0,24.74,2.86Z" transform="translate(-3.26 -0.34)"/>
    <path class="cls-1" d="M10.51,6.46a.48.48,0,0,0,.26-.09.52.52,0,0,0,.15-.7L9.1,2.83a.52.52,0,0,0-.7-.15.51.51,0,0,0-.15.71l1.82,2.84A.48.48,0,0,0,10.51,6.46Z" transform="translate(-3.26 -0.34)"/>
    <path class="cls-1" d="M3.54,8.83l3,1.61a.71.71,0,0,0,.24.06.5.5,0,0,0,.44-.26A.51.51,0,0,0,7,9.57L4,8a.53.53,0,0,0-.67.21A.46.46,0,0,0,3.54,8.83Z" transform="translate(-3.26 -0.34)"/>
    <path class="cls-1" d="M26.18,10.5a.56.56,0,0,0,.23-.06l3-1.61a.51.51,0,0,0,.2-.67A.53.53,0,0,0,28.93,8l-3,1.62a.51.51,0,0,0-.2.67A.48.48,0,0,0,26.18,10.5Z" transform="translate(-3.26 -0.34)"/>
    <path class="cls-1" d="M17,15.74V13.38a1.32,1.32,0,0,1,.66.47.52.52,0,0,0,.65.12.39.39,0,0,0,.14-.58A2.35,2.35,0,0,0,17,12.52v-.66a.47.47,0,0,0-.94,0v.66a2.1,2.1,0,0,0-1.82,2,2.11,2.11,0,0,0,1.82,2v2.36a1.32,1.32,0,0,1-.66-.47.52.52,0,0,0-.65-.12.38.38,0,0,0-.13.58,2.3,2.3,0,0,0,1.44.87v.66a.47.47,0,0,0,.94,0v-.66a2.11,2.11,0,0,0,1.83-2,2.12,2.12,0,0,0-1.83-2ZM15.14,14.5A1.22,1.22,0,0,1,16,13.38v2.24a1.21,1.21,0,0,1-.88-1.12ZM17,18.85V16.61a1.19,1.19,0,0,1,.88,1.12A1.21,1.21,0,0,1,17,18.85Zm0,0" transform="translate(-3.26 -0.34)"/>
  </g>
</svg>
