<svg id="Layer_1" data-name="Layer 1" xmlns="http://www.w3.org/2000/svg" viewBox="0 0 31.3 27"><defs><style>.cls-1,.cls-2{fill:none;stroke-miterlimit:10;stroke-width:1.5px;}.cls-1{stroke:#557cbd;}.cls-2{stroke:#989898;}.cls-3{fill:#557cbd;}</style></defs><title>ProductOverview_Onclick</title><path class="cls-1" d="M30.2,4.4a2.6,2.6,0,0,0-1.9-.8H3.9A2.6,2.6,0,0,0,2,4.4a3.2,3.2,0,0,0-.8,2.1V26.2a2.8,2.8,0,0,0,.8,2,2.3,2.3,0,0,0,1.9.9H28.3a2.3,2.3,0,0,0,1.9-.9,2.8,2.8,0,0,0,.8-2V6.5a3.2,3.2,0,0,0-.8-2.1Z" transform="translate(-0.4 -2.8)"/><path class="cls-1" d="M27.9,25.8a.5.5,0,0,1-.2.4l-.3.2H4.6l-.4-.2c-.1-.1-.1-.2-.1-.4v-14c0-.2,0-.3.1-.4l.4-.2H27.4l.3.2a.5.5,0,0,1,.2.4Z" transform="translate(-0.4 -2.8)"/><path class="cls-2" d="M28.9,26.2" transform="translate(-0.4 -2.8)"/><path class="cls-3" d="M8.7,20.9H7.6c-.1.1-.2.2-.2.3v.8l.2.2H9.1v-1c0-.1-.1-.2-.1-.3Zm0,0" transform="translate(-0.4 -2.8)"/><path class="cls-3" d="M8.7,17.8H7.9c-.1,0-.3.1-.3.2a.2.2,0,0,0-.2.2V19c0,.1.1.2.2.3H9.1c0-.1.1-.2.1-.3V18a.5.5,0,0,0-.4-.2Zm0,0" transform="translate(-0.4 -2.8)"/><path class="cls-3" d="M8.7,14.8H7.6l-.2.2v.8l.2.3c0,.1.2.1.3.1H9.1V14.9Zm0,0" transform="translate(-0.4 -2.8)"/><path class="cls-3" d="M24.6,20.9H11.1a.4.4,0,0,0-.1.3v.8c0,.1,0,.2.1.2H24.9c.1,0,.1-.1.1-.2v-.8a.4.4,0,0,0-.1-.3Zm0,0" transform="translate(-0.4 -2.8)"/><path class="cls-3" d="M24.6,17.8H11.4l-.3.2c-.1,0-.1.1-.1.2V19a.4.4,0,0,0,.1.3H24.9A.4.4,0,0,0,25,19v-.8c0-.1,0-.2-.1-.2l-.3-.2Zm0,0" transform="translate(-0.4 -2.8)"/><path class="cls-3" d="M24.6,14.8H11.1v1a.4.4,0,0,0,.1.3H24.9a.4.4,0,0,0,.1-.3v-1Zm0,0" transform="translate(-0.4 -2.8)"/><rect class="cls-3" x="0.8" y="1.2" width="29.7" height="3.6" rx="1.2" ry="1.2"/></svg>