<svg id="Layer_1" data-name="Layer 1" xmlns="http://www.w3.org/2000/svg" viewBox="0 0 31.75 31.75">
  <defs>
    <style>
      .cls-1 {
        fill: #989898;
      }

      .cls-2 {
        fill: #2da854;
      }
    </style>
  </defs>
  <title>ProductPrices_Onclick</title>
  <path class="cls-1" d="M31.64,15.91c0,.22.08.47.13.72A5.4,5.4,0,0,0,31.64,15.91Z" transform="translate(-0.2 -0.25)"/>
  <path class="cls-2" d="M31.22,27.77,23,19.49A12.38,12.38,0,1,0,19.44,23l2.29,2.28h0l6,6a2.47,2.47,0,0,0,3.51,0,2.46,2.46,0,0,0,0-3.5ZM20.45,22.25A12.06,12.06,0,0,0,22.2,20.5L24,22.26A15.22,15.22,0,0,1,22.21,24Zm-19-9.6a11.16,11.16,0,1,1,20.2,6.55,11.53,11.53,0,0,1-2.49,2.49h0a11.16,11.16,0,0,1-17.71-9ZM30.35,30.4a1.26,1.26,0,0,1-1.76,0l-5.5-5.51a18.07,18.07,0,0,0,1.75-1.75l5.51,5.5a1.26,1.26,0,0,1,0,1.76Z" transform="translate(-0.2 -0.25)"/>
  <path class="cls-2" d="M22.52,12.65a9.92,9.92,0,1,0-9.92,9.92A9.93,9.93,0,0,0,22.52,12.65ZM12.6,21.33a8.68,8.68,0,1,1,8.68-8.68A8.68,8.68,0,0,1,12.6,21.33Z" transform="translate(-0.2 -0.25)"/>
  <path class="cls-2" d="M13.23,12.16V9a1.78,1.78,0,0,1,.88.62.68.68,0,0,0,.87.15A.51.51,0,0,0,15.16,9a3.06,3.06,0,0,0-1.93-1.16V7a.6.6,0,0,0-.63-.55A.6.6,0,0,0,12,7v.88A2.82,2.82,0,0,0,9.54,10.5,2.82,2.82,0,0,0,12,13.15V16.3a1.85,1.85,0,0,1-.88-.62.67.67,0,0,0-.87-.16.51.51,0,0,0-.17.77A3.08,3.08,0,0,0,12,17.45v.88a.6.6,0,0,0,.63.56.6.6,0,0,0,.63-.56v-.88a2.81,2.81,0,0,0,2.44-2.65,2.81,2.81,0,0,0-2.44-2.64ZM10.79,10.5A1.62,1.62,0,0,1,12,9v3a1.64,1.64,0,0,1-1.18-1.5Zm2.44,5.8v-3a1.54,1.54,0,0,1,0,3Zm0,0" transform="translate(-0.2 -0.25)"/>
</svg>
