<svg id="Layer_1" data-name="Layer 1" xmlns="http://www.w3.org/2000/svg" viewBox="0 0 30.8 31.7"><defs><style>.cls-1{fill:#f6bb2f;}</style></defs><title>Setup_Onclick</title><path class="cls-1" d="M17,15.7V1.2a.9.9,0,1,0-1.8,0V15.7a4.7,4.7,0,0,0-3.6,4.5,4.5,4.5,0,0,0,3.6,4.4v6.5a.9.9,0,0,0,1.8,0V24.6a4.4,4.4,0,0,0,3.6-4.4A4.6,4.6,0,0,0,17,15.7Zm-.9,7.2a2.7,2.7,0,0,1-2.7-2.7,2.8,2.8,0,0,1,2.7-2.8,2.9,2.9,0,0,1,2.8,2.8,2.8,2.8,0,0,1-2.8,2.7Zm0,0" transform="translate(-0.7 -0.3)"/><path class="cls-1" d="M6.1,8.3V1.2a.9.9,0,0,0-1.8,0V8.3a4.5,4.5,0,0,0,0,8.8v14a.9.9,0,0,0,1.8,0v-14a4.5,4.5,0,0,0,0-8.8Zm-.9,7.1a2.7,2.7,0,1,1,2.7-2.7,2.7,2.7,0,0,1-2.7,2.7Zm0,0" transform="translate(-0.7 -0.3)"/><path class="cls-1" d="M27.9,8.3V1.2a.9.9,0,1,0-1.8,0V8.3a4.5,4.5,0,0,0,0,8.8v14a.9.9,0,0,0,1.8,0v-14a4.5,4.5,0,0,0,0-8.8ZM27,15.4a2.8,2.8,0,0,1-2.8-2.7A2.8,2.8,0,0,1,27,10a2.7,2.7,0,0,1,0,5.4Zm0,0" transform="translate(-0.7 -0.3)"/></svg>