<svg id="Layer_1" data-name="Layer 1" xmlns="http://www.w3.org/2000/svg" viewBox="0 0 31.4 31.4"><defs><style>.cls-1{fill:#e94537;}</style></defs><title>Sites_Onclick</title><path class="cls-1" d="M15.7.4A15.7,15.7,0,1,0,31.4,16.1,15.7,15.7,0,0,0,15.7.4ZM25.8,17.6a2.6,2.6,0,0,0-2.5,2.6,1.3,1.3,0,0,0,.1.6l-1.5.3c.2-1.4.3-2.9.4-4.5h8A4.2,4.2,0,0,1,28.1,19a2.6,2.6,0,0,0-2.3-1.4Zm1.5,2.6a1.5,1.5,0,0,1-3,0,1.5,1.5,0,1,1,3,0ZM5.6,14.6a2.5,2.5,0,0,0,2.5-2.5,1.5,1.5,0,0,0-.1-.7l1.4-.3a31.9,31.9,0,0,0-.3,4.5h-8a4.5,4.5,0,0,1,2.2-2.4,2.6,2.6,0,0,0,2.3,1.4ZM4,12.1a1.6,1.6,0,0,1,1.6-1.6,1.6,1.6,0,0,1,1.5,1.6,1.5,1.5,0,0,1-1.5,1.5A1.6,1.6,0,0,1,4,12.1Zm18.3,3.5c-.1-1.6-.2-3.1-.4-4.5,4.7.8,7.9,2.6,8.4,4.5Zm-1,0H16.2V1.5c2.5.7,4.9,6.1,5.1,14.1ZM15.2,1.5V15.6H10.1c.1-8,2.6-13.4,5.1-14.1ZM9.1,16.6a31.9,31.9,0,0,0,.3,4.5c-4.7-.8-7.8-2.7-8.3-4.5Zm1,0h5.1v5.1l-4.7-.4a33,33,0,0,1-.4-4.7Zm5.1,6.1v8c-1.8-.5-3.7-3.6-4.5-8.3,1.4.1,2.9.3,4.5.3Zm1,8v-8a32.7,32.7,0,0,0,4.5-.4c-.9,4.8-2.7,7.9-4.5,8.4Zm0-9V16.6h5.1c-.1,1.7-.2,3.3-.4,4.7l-4.7.4Zm13.9-8.2c-1.5-1.6-4.5-2.8-8.3-3.5-.7-3.7-1.9-6.7-3.5-8.3A14.7,14.7,0,0,1,30.1,13.5ZM13.1,1.7C11.5,3.3,10.3,6.3,9.6,10l-2.1.5a2.3,2.3,0,0,0-1.9-1A2.6,2.6,0,0,0,3,12.1H3a5.9,5.9,0,0,0-1.7,1.3A14.6,14.6,0,0,1,13.1,1.7ZM1.3,18.7c1.5,1.6,4.5,2.8,8.3,3.5.7,3.8,1.9,6.8,3.5,8.3A14.5,14.5,0,0,1,1.3,18.7Zm17,11.8c1.6-1.5,2.8-4.5,3.5-8.3l2.1-.5a2.3,2.3,0,0,0,1.9,1,2.5,2.5,0,0,0,2.5-2.5V20a5.2,5.2,0,0,0,1.8-1.3A14.6,14.6,0,0,1,18.3,30.5Zm0,0" transform="translate(0 -0.4)"/></svg>