<?xml version="1.0" encoding="utf-8"?>
<!-- Generator: Adobe Illustrator 22.1.0, SVG Export Plug-In . SVG Version: 6.00 Build 0)  -->
<svg version="1.1" id="Layer_1" xmlns="http://www.w3.org/2000/svg" xmlns:xlink="http://www.w3.org/1999/xlink" x="0px" y="0px"
	 viewBox="0 0 166.4 47.6" style="enable-background:new 0 0 166.4 47.6;" xml:space="preserve">
<style type="text/css">
	.st0{fill:#010101;}
	.st1{fill:#2EA853;}
	.st2{fill:#F5BB2D;}
	.st3{fill:#567CBE;}
	.st4{fill:#E94637;}
	.st5{fill:#231F20;}
</style>
<title>PTlogo</title>
<g>
	<path class="st0" d="M26,44.2c-3.7,3.9-9.7,4.5-14,1.3l-0.1-0.1c0-0.1,0-0.2,0.1-0.2l1.6-2.8l2.4-4.2c0,0,0-0.1,0.1-0.1
		c0.1-0.1,0.2-0.1,0.2,0c0,0.5,0.2,0.9,0.5,1.2c0.6,0.5,1.5,0.4,2.1-0.2c0-0.1,0.1-0.1,0.1-0.2c0.4-0.6,0.8-1.3,1.1-1.9
		c1.5-2.5,2.9-5,4.3-7.5l2.3-4c0.1-0.2,0.3-0.3,0.6-0.3h14.8c0.5,0,1-0.2,1.3-0.7c0.3-0.4,0.3-1,0.1-1.4c-0.2-0.5-0.7-0.8-1.2-0.8
		H25.5c-0.1,0-0.3,0-0.4,0c-0.1-0.1,0-0.2,0-0.3c0.2-0.4,0.5-0.8,0.7-1.2c1.4-2.4,2.8-4.8,4.2-7.3c0.1-0.1,0.1-0.2,0.3-0.3
		c0.3,0,0.6,0,0.9,0c0.9,0,1.7,0,2.6,0c1.2,0,2.5,0,3.7,0s2.5,0,3.8,0c0.7,0,1.4,0.1,2.1,0.2c0.1,0,0.2,0,0.3,0.1
		c0.8,0.2,1.6,0.5,2.4,0.9c3,1.5,5.2,4.4,5.7,7.7c0.8,5.4-2.6,10.5-7.9,11.8h-0.1C43.6,34,43.5,34,43.3,34c-0.6,0.1-1.3,0.2-1.9,0.2
		c-2.5,0-4.9,0-7.4,0h-1.7c-0.2,0-0.3,0.1-0.4,0.2c-0.2,0.4-0.5,0.9-0.7,1.3c-0.8,1.4-1.6,2.8-2.4,4.1c-0.6,1.1-1.2,2.2-1.9,3.2
		c-0.2,0.3-0.4,0.6-0.6,0.8C26.2,44,26.1,44.1,26,44.2z"/>
	<path class="st1" d="M30.2,13.3l-2.3,4.1l-2.6,4.6l-0.2,0.3c-0.1,0.1-0.3,0.1-0.4,0.1h-9.4c-0.1,0-0.2,0-0.3,0
		c-0.2-0.1-0.1-0.2,0-0.3c0.3-0.5,0.5-0.9,0.8-1.4l3.8-6.6c0.2-0.3,0.3-0.5,0.4-0.8c0.3-0.5,0.6-1,0.9-1.5c0.9-1.6,1.8-3.2,2.8-4.8
		c0.6-1.1,1.2-2.1,1.9-3.2c0.1-0.2,0.3-0.4,0.5-0.5c0.6-0.7,1.4-1.3,2.1-1.8c4.9-3,11.3-1.5,14.4,3.4c1.6,2.5,2,5.7,1.1,8.5
		c0,0,0,0.1,0,0.1c-1.5-0.2-3-0.3-4.4-0.2c-1.7,0-3.5,0-5.2,0h-0.3c0-0.1,0-0.2,0.1-0.2l1.1-1.9c0.3-0.4,0.4-0.8,0.3-1.3
		c-0.1-0.6-0.6-1-1.2-1.1c-0.6-0.1-1.2,0.2-1.5,0.7c-0.6,1-1.2,2.1-1.8,3.1l-0.3,0.6C30.3,13.2,30.3,13.3,30.2,13.3z"/>
	<path class="st2" d="M20,13.3c-0.5,0.8-0.9,1.6-1.4,2.4l-3.7,6.3c0,0,0,0.1,0,0.1s-0.2,0.1-0.3,0.1H9.9c-0.8,0-1.5,0.6-1.5,1.4
		c0,0.8,0.6,1.5,1.4,1.5h2.9c0.1,0,0.2,0,0.3,0c0.1,0.1,0,0.2,0,0.2L12.2,27c-1,1.7-1.9,3.3-2.9,5c-0.3,0.6-0.6,1.1-0.8,1.7
		c0,0.1,0,0.2-0.1,0.2c-4.1-0.8-7.3-4-8.1-8.1c-0.8-3.6,0.4-7.4,3.2-9.8c1.3-1.3,3-2.1,4.8-2.5h0.1c0.1-0.1,0.2-0.1,0.3-0.1
		c0.6-0.1,1.3-0.2,1.9-0.2c2.5,0,5,0,7.4,0h0.3c0.5,0,1,0,1.5,0C19.8,13.3,19.9,13.3,20,13.3z"/>
	<path class="st3" d="M33.8,34.2h0.2h6c1.2,0.1,2.4,0,3.6-0.2c0.2,0.6,0.3,1.2,0.4,1.9c0.2,1.6,0.1,3.3-0.5,4.8
		c-1.2,3.5-4.2,6-7.8,6.7c-3.5,0.8-7.2-0.4-9.6-3l-0.1-0.1c1-1.2,1.8-2.5,2.5-3.8c0.8-1.4,1.7-2.9,2.5-4.3c0-0.1,0.1-0.2,0.1-0.2
		s0.2,0.1,0.2,0.2c0.3,0.6,0.7,1.1,1,1.7c0.3,0.6,1,0.9,1.6,0.8c0.8-0.2,1.3-0.9,1.2-1.8c0-0.2-0.1-0.3-0.2-0.5l-1-1.8
		C33.9,34.4,33.8,34.3,33.8,34.2z"/>
	<path class="st4" d="M18.2,13.3h-7.5c-0.7,0-1.5,0-2.2,0.2H8.3c-0.3-1-0.5-2.1-0.5-3.2c0-4.9,3.5-9.1,8.3-10.1
		c3.5-0.8,7.2,0.4,9.6,3L26,3.4c-1.1,1.4-2,2.8-2.8,4.4c-0.8,1.3-1.5,2.6-2.3,3.9l-0.1,0.1c-0.1,0-0.2-0.1-0.2-0.2
		c-0.3-0.6-0.7-1.1-1-1.7c-0.3-0.6-1-0.9-1.6-0.8c-0.8,0.2-1.3,0.9-1.2,1.7c0,0.2,0.1,0.3,0.2,0.5l1,1.8
		C18.2,13.2,18.2,13.2,18.2,13.3z"/>
	<path class="st1" d="M8.3,34c0.8-1.9,1.8-3.7,2.9-5.4c0.6-1.1,1.3-2.2,1.9-3.3c0.1-0.1,0.2-0.1,0.3-0.1h9.8c0.2,0,0.2,0.1,0.1,0.2
		S23,26,22.8,26.3l-4.4,7.6c-0.7,1.1-1.3,2.2-2,3.4c-0.2,0.2-0.3,0.5-0.3,0.7c0,0,0,0.1-0.1,0.1s-0.1,0-0.1,0
		c-0.3,0.6-0.6,1.1-0.9,1.7L12,45.2c0,0-0.1,0.1-0.1,0.1c-3.4-2.6-4.8-7.1-3.6-11.2C8.3,34.1,8.3,34.1,8.3,34z"/>
</g>
<g>
	<path class="st5" d="M62.5,11.4c2.6,0,4.2,1.3,4.2,3.6s-1.5,3.8-4.2,3.8h-2.4v3.2h-1.8V11.4H62.5z M60.1,17.1h2.3
		c1.6,0,2.5-0.7,2.5-2.1s-0.9-2-2.5-2h-2.3V17.1z"/>
	<path class="st5" d="M70,15.5c0.5-1,1.6-1.7,2.8-1.6v1.7c-1.3-0.2-2.5,0.7-2.7,2c0,0.1,0,0.1,0,0.2v4.1h-1.7v-8H70L70,15.5z"/>
	<path class="st5" d="M76.1,11.6c0,0.6-0.4,1-1,1s-1-0.4-1-1s0.4-1,1-1S76.1,11.1,76.1,11.6z M74.2,21.9v-8h1.7v8H74.2z"/>
	<path class="st5" d="M85,15.1l-0.9,1.1c-0.6-0.6-1.4-0.9-2.3-0.9c-1.4,0.1-2.4,1.4-2.3,2.8c0.1,1.2,1.1,2.2,2.3,2.3
		c0.9,0,1.8-0.3,2.3-1l1,1c-0.8,1-2.1,1.6-3.4,1.5c-2.2,0-4-1.8-4-4.1c0-2.2,1.8-4,4-4C83,13.8,84.2,14.2,85,15.1z"/>
	<path class="st5" d="M93.6,18.5h-6c0.2,1.2,1.3,2,2.5,2c0.8,0,1.7-0.3,2.3-0.9l0.9,1C92.4,21.5,91.2,22,90,22
		c-2.1,0.1-3.9-1.5-4.1-3.6c0-0.1,0-0.3,0-0.4c-0.1-2.1,1.5-4,3.7-4.1c0.1,0,0.2,0,0.3,0C92.7,13.9,93.8,15.7,93.6,18.5z M92.1,17.3
		c0-1.1-0.9-2.1-2-2.1c-0.1,0-0.1,0-0.2,0c-1.2,0-2.2,0.9-2.3,2.1H92.1z"/>
	<path class="st5" d="M101.1,13.4l-1.2,8.5h-2.4l1.2-8.5h-3.2l0.3-2h8.8l-0.3,2L101.1,13.4z"/>
	<path class="st5" d="M111.5,21.9l-1-5.3l-2.5,5.3h-2.3l-1.8-8h2.4l1,5.8l2.6-5.8h2.3l0.9,5.8l2.6-5.8h2.3l-4.1,8H111.5z"/>
	<path class="st5" d="M125.4,18.5h-5.8c0.1,1,0.9,1.7,1.9,1.6c0,0,0,0,0,0c0.8,0,1.6-0.3,2.2-0.8l1,1.2c-1,0.9-2.3,1.4-3.7,1.4
		c-2.6,0-4-1.7-3.6-4.1c0.3-2.4,2.3-4.2,4.8-4.1C125,13.7,126,15.6,125.4,18.5z M123.4,17.2c0.2-0.8-0.3-1.5-1.1-1.7
		c-0.1,0-0.3,0-0.5,0c-1,0-1.9,0.8-2.1,1.8H123.4z"/>
	<path class="st5" d="M131.3,20.9c-0.7,0.7-1.7,1.1-2.7,1.1c-1.7,0-2.6-1.1-2.4-2.5s1.4-2.4,3.4-2.4h2.2v-0.2
		c0.1-0.9-0.4-1.3-1.5-1.3c-0.9,0-1.7,0.3-2.5,0.7l-0.5-1.6c1.2-0.6,2.5-0.9,3.8-0.9c2.2,0,3.3,1.1,3,2.9l-0.7,5.3h-2.3L131.3,20.9z
		 M131.5,19.1l0.1-0.7h-1.8c-0.9,0-1.4,0.3-1.5,0.9s0.3,1,1.1,1C130.3,20.4,131.1,19.9,131.5,19.1z"/>
	<path class="st5" d="M138.1,19.7l-0.3,2.2h-2.3l1.6-11.1h2.3l-0.9,6.1l3.4-3h2.6l-3.4,3.1l2.4,5h-2.7l-1.5-3.3L138.1,19.7z"/>
	<path class="st5" d="M152.2,18.5h-5.8c0.1,1,0.9,1.7,1.8,1.6c0,0,0,0,0,0c0.8,0,1.6-0.3,2.2-0.8l1,1.2c-1,0.9-2.3,1.4-3.6,1.4
		c-2.6,0-4-1.7-3.6-4.1c0.3-2.4,2.3-4.2,4.8-4.1C151.7,13.7,152.8,15.6,152.2,18.5z M150.2,17.2c0.2-0.8-0.3-1.5-1.1-1.7
		c-0.2,0-0.3,0-0.5,0c-1,0.1-1.8,0.8-2,1.8H150.2z"/>
	<path class="st5" d="M156.5,15.3c0.6-1,1.7-1.5,2.9-1.6l-0.3,2.2c-1.4-0.3-2.7,0.6-3,2c0,0,0,0.1,0,0.1l-0.5,3.9h-2.3l1.2-8.1h2.3
		L156.5,15.3z"/>
	<path class="st5" d="M166.4,14.6l-1,1.6c-0.7-0.5-1.5-0.7-2.4-0.8c-0.5,0-1,0.2-1,0.6c-0.2,1.2,4.2,0.6,3.8,3.4
		c-0.2,1.7-1.8,2.5-3.6,2.5c-1.2,0.1-2.4-0.3-3.4-1.1l1-1.6c0.7,0.6,1.7,1,2.7,1c0.6,0,1-0.2,1.1-0.6c0.2-1.3-4.1-0.6-3.7-3.4
		c0.2-1.7,1.8-2.5,3.6-2.5C164.5,13.7,165.5,14,166.4,14.6z"/>
</g>
<g>
	<path d="M65.4,31v2.1c-0.6,0.4-1.6,0.7-2.4,0.7c-1.9,0-3.3-1.3-3.3-2.9c0-1.6,1.5-2.9,3.4-2.9c0.9,0,1.8,0.3,2.4,0.8l-0.6,0.7
		c-0.5-0.4-1.2-0.6-1.8-0.6c-1.3,0-2.3,0.9-2.3,2c0,1.1,1,2,2.3,2c0.5,0,1-0.1,1.4-0.4V31H65.4z"/>
	<path d="M69.8,32c-0.1,0-0.2,0-0.3,0H68v1.7h-1.1v-5.7h2.6c1.6,0,2.5,0.7,2.5,1.9c0,0.9-0.5,1.5-1.3,1.8l1.4,1.9h-1.2L69.8,32z
		 M69.5,31.2c1,0,1.5-0.4,1.5-1.1c0-0.7-0.6-1.1-1.5-1.1H68v2.2H69.5z"/>
	<path d="M79.6,30.9c0,1.6-1.5,2.9-3.3,2.9c-1.9,0-3.3-1.3-3.3-2.9c0-1.6,1.5-2.9,3.3-2.9C78.1,28.1,79.6,29.3,79.6,30.9z M74,30.9
		c0,1.1,1,2,2.3,2c1.2,0,2.2-0.9,2.2-2s-1-2-2.2-2C75,28.9,74,29.8,74,30.9z"/>
	<path d="M86,33.7l-1.5-4.4L83,33.7h-1.1l-2.1-5.7H81l1.5,4.6l1.5-4.6l1,0l1.5,4.6l1.5-4.6h1.1l-2.1,5.7H86z"/>
	<path d="M94.9,33.7h-1.1v-1.9l-2.3-3.8h1.1l1.8,2.8l1.8-2.8h1.1l-2.3,3.8V33.7z"/>
	<path d="M103.8,30.9c0,1.6-1.5,2.9-3.3,2.9c-1.9,0-3.3-1.3-3.3-2.9c0-1.6,1.5-2.9,3.3-2.9C102.3,28.1,103.8,29.3,103.8,30.9z
		 M98.2,30.9c0,1.1,1,2,2.3,2c1.2,0,2.2-0.9,2.2-2s-1-2-2.2-2C99.2,28.9,98.2,29.8,98.2,30.9z"/>
	<path d="M110.2,31.4c0,1.5-1,2.4-2.7,2.4c-1.7,0-2.7-0.9-2.7-2.4v-3.3h1.1v3.3c0,1,0.7,1.5,1.7,1.5c1,0,1.7-0.6,1.7-1.5v-3.3h1.1
		V31.4z"/>
	<path d="M114.6,32c-0.1,0-0.2,0-0.3,0h-1.5v1.7h-1.1v-5.7h2.6c1.6,0,2.5,0.7,2.5,1.9c0,0.9-0.5,1.5-1.3,1.8l1.4,1.9h-1.2L114.6,32z
		 M114.3,31.2c1,0,1.5-0.4,1.5-1.1c0-0.7-0.6-1.1-1.5-1.1h-1.5v2.2H114.3z"/>
	<path d="M123.3,28.1c1.3,0,2.1,0.5,2.1,1.4c0,0.6-0.4,1.1-1.1,1.3c0.8,0.1,1.3,0.7,1.3,1.4c0,1-0.9,1.6-2.3,1.6h-2.8v-5.7H123.3z
		 M121.7,30.4h1.6c0.7,0,1.1-0.3,1.1-0.8c0-0.5-0.4-0.7-1.1-0.7h-1.6V30.4z M121.7,32.9h1.6c0.8,0,1.3-0.3,1.3-0.8
		c0-0.5-0.5-0.8-1.3-0.8h-1.6V32.9z"/>
	<path d="M132.3,31.4c0,1.5-1,2.4-2.7,2.4c-1.7,0-2.7-0.9-2.7-2.4v-3.3h1.1v3.3c0,1,0.7,1.5,1.7,1.5c1,0,1.7-0.6,1.7-1.5v-3.3h1.1
		V31.4z"/>
	<path d="M138.1,28.6l-0.4,0.8c-0.7-0.4-1.4-0.5-1.8-0.5c-0.6,0-1,0.2-1,0.6c0,1.2,3.4,0.6,3.4,2.6c0,1-1,1.6-2.4,1.6
		c-1,0-1.9-0.4-2.6-0.9l0.5-0.8c0.6,0.5,1.5,0.8,2.1,0.8c0.7,0,1.2-0.3,1.2-0.7c0-1.3-3.4-0.6-3.4-2.6c0-1,0.9-1.6,2.3-1.6
		C136.7,28.1,137.5,28.3,138.1,28.6z"/>
	<path d="M139.4,33.7v-5.7h1.1v5.7H139.4z"/>
	<path d="M146.5,33.7l-3.4-4.1v4.1h-1.1v-5.7h1l3.4,4.1v-4.1h1v5.7H146.5z"/>
	<path d="M150.3,28.9v1.5h3.1v0.9h-3.1v1.6h3.5v0.9h-4.6v-5.7h4.5v0.9H150.3z"/>
	<path d="M159.4,28.6l-0.4,0.8c-0.7-0.4-1.4-0.5-1.8-0.5c-0.6,0-1,0.2-1,0.6c0,1.2,3.4,0.6,3.4,2.6c0,1-1,1.6-2.4,1.6
		c-1,0-1.9-0.4-2.6-0.9l0.5-0.8c0.6,0.5,1.5,0.8,2.1,0.8c0.7,0,1.2-0.3,1.2-0.7c0-1.3-3.4-0.6-3.4-2.6c0-1,0.9-1.6,2.3-1.6
		C158,28.1,158.8,28.3,159.4,28.6z"/>
	<path d="M165,28.6l-0.4,0.8c-0.7-0.4-1.4-0.5-1.8-0.5c-0.6,0-1,0.2-1,0.6c0,1.2,3.4,0.6,3.4,2.6c0,1-1,1.6-2.4,1.6
		c-1,0-1.9-0.4-2.6-0.9l0.5-0.8c0.6,0.5,1.5,0.8,2.1,0.8c0.7,0,1.2-0.3,1.2-0.7c0-1.3-3.4-0.6-3.4-2.6c0-1,0.9-1.6,2.3-1.6
		C163.6,28.1,164.4,28.3,165,28.6z"/>
</g>
</svg>
