<?xml version="1.0" encoding="utf-8"?>
<!-- Generator: Adobe Illustrator 22.1.0, SVG Export Plug-In . SVG Version: 6.00 Build 0)  -->
<svg version="1.1" id="Layer_1" xmlns="http://www.w3.org/2000/svg" xmlns:xlink="http://www.w3.org/1999/xlink" x="0px" y="0px"
	 viewBox="0 0 166.4 47.6" style="enable-background:new 0 0 166.4 47.6;" xml:space="preserve">
<style type="text/css">
	.st0{fill:#010101;}
	.st1{fill:#2EA853;}
	.st2{fill:#F5BB2D;}
	.st3{fill:#567CBE;}
	.st4{fill:#E94637;}
	.st5{fill:#231F20;}
</style>
<title>PTlogo</title>
<g>
	<path class="st0" d="M26,44.2c-3.7,3.9-9.7,4.5-14,1.3l-0.1-0.1c0-0.1,0-0.2,0.1-0.2l1.6-2.8l2.4-4.2c0,0,0-0.1,0.1-0.1
		c0.1-0.1,0.2-0.1,0.2,0c0,0.5,0.2,0.9,0.5,1.2c0.6,0.5,1.5,0.4,2.1-0.2c0-0.1,0.1-0.1,0.1-0.2c0.4-0.6,0.8-1.3,1.1-1.9
		c1.5-2.5,2.9-5,4.3-7.5l2.3-4c0.1-0.2,0.3-0.3,0.6-0.3h14.8c0.5,0,1-0.2,1.3-0.7c0.3-0.4,0.3-1,0.1-1.4c-0.2-0.5-0.7-0.8-1.2-0.8
		H25.5c-0.1,0-0.3,0-0.4,0c-0.1-0.1,0-0.2,0-0.3c0.2-0.4,0.5-0.8,0.7-1.2c1.4-2.4,2.8-4.8,4.2-7.3c0.1-0.1,0.1-0.2,0.3-0.3
		c0.3,0,0.6,0,0.9,0c0.9,0,1.7,0,2.6,0c1.2,0,2.5,0,3.7,0s2.5,0,3.8,0c0.7,0,1.4,0.1,2.1,0.2c0.1,0,0.2,0,0.3,0.1
		c0.8,0.2,1.6,0.5,2.4,0.9c3,1.5,5.2,4.4,5.7,7.7c0.8,5.4-2.6,10.5-7.9,11.8h-0.1C43.6,34,43.5,34,43.3,34c-0.6,0.1-1.3,0.2-1.9,0.2
		c-2.5,0-4.9,0-7.4,0h-1.7c-0.2,0-0.3,0.1-0.4,0.2c-0.2,0.4-0.5,0.9-0.7,1.3c-0.8,1.4-1.6,2.8-2.4,4.1c-0.6,1.1-1.2,2.2-1.9,3.2
		c-0.2,0.3-0.4,0.6-0.6,0.8C26.2,44,26.1,44.1,26,44.2z"/>
	<path class="st1" d="M30.2,13.3l-2.3,4.1l-2.6,4.6l-0.2,0.3c-0.1,0.1-0.3,0.1-0.4,0.1h-9.4c-0.1,0-0.2,0-0.3,0
		c-0.2-0.1-0.1-0.2,0-0.3c0.3-0.5,0.5-0.9,0.8-1.4l3.8-6.6c0.2-0.3,0.3-0.5,0.4-0.8c0.3-0.5,0.6-1,0.9-1.5c0.9-1.6,1.8-3.2,2.8-4.8
		c0.6-1.1,1.2-2.1,1.9-3.2c0.1-0.2,0.3-0.4,0.5-0.5c0.6-0.7,1.4-1.3,2.1-1.8c4.9-3,11.3-1.5,14.4,3.4c1.6,2.5,2,5.7,1.1,8.5
		c0,0,0,0.1,0,0.1c-1.5-0.2-3-0.3-4.4-0.2c-1.7,0-3.5,0-5.2,0h-0.3c0-0.1,0-0.2,0.1-0.2l1.1-1.9c0.3-0.4,0.4-0.8,0.3-1.3
		c-0.1-0.6-0.6-1-1.2-1.1c-0.6-0.1-1.2,0.2-1.5,0.7c-0.6,1-1.2,2.1-1.8,3.1l-0.3,0.6C30.3,13.2,30.3,13.3,30.2,13.3z"/>
	<path class="st2" d="M20,13.3c-0.5,0.8-0.9,1.6-1.4,2.4l-3.7,6.3c0,0,0,0.1,0,0.1s-0.2,0.1-0.3,0.1H9.9c-0.8,0-1.5,0.6-1.5,1.4
		c0,0.8,0.6,1.5,1.4,1.5h2.9c0.1,0,0.2,0,0.3,0c0.1,0.1,0,0.2,0,0.2L12.2,27c-1,1.7-1.9,3.3-2.9,5c-0.3,0.6-0.6,1.1-0.8,1.7
		c0,0.1,0,0.2-0.1,0.2c-4.1-0.8-7.3-4-8.1-8.1c-0.8-3.6,0.4-7.4,3.2-9.8c1.3-1.3,3-2.1,4.8-2.5h0.1c0.1-0.1,0.2-0.1,0.3-0.1
		c0.6-0.1,1.3-0.2,1.9-0.2c2.5,0,5,0,7.4,0h0.3c0.5,0,1,0,1.5,0C19.8,13.3,19.9,13.3,20,13.3z"/>
	<path class="st3" d="M33.8,34.2h0.2h6c1.2,0.1,2.4,0,3.6-0.2c0.2,0.6,0.3,1.2,0.4,1.9c0.2,1.6,0.1,3.3-0.5,4.8
		c-1.2,3.5-4.2,6-7.8,6.7c-3.5,0.8-7.2-0.4-9.6-3l-0.1-0.1c1-1.2,1.8-2.5,2.5-3.8c0.8-1.4,1.7-2.9,2.5-4.3c0-0.1,0.1-0.2,0.1-0.2
		s0.2,0.1,0.2,0.2c0.3,0.6,0.7,1.1,1,1.7c0.3,0.6,1,0.9,1.6,0.8c0.8-0.2,1.3-0.9,1.2-1.8c0-0.2-0.1-0.3-0.2-0.5l-1-1.8
		C33.9,34.4,33.8,34.3,33.8,34.2z"/>
	<path class="st4" d="M18.2,13.3h-7.5c-0.7,0-1.5,0-2.2,0.2H8.3c-0.3-1-0.5-2.1-0.5-3.2c0-4.9,3.5-9.1,8.3-10.1
		c3.5-0.8,7.2,0.4,9.6,3L26,3.4c-1.1,1.4-2,2.8-2.8,4.4c-0.8,1.3-1.5,2.6-2.3,3.9l-0.1,0.1c-0.1,0-0.2-0.1-0.2-0.2
		c-0.3-0.6-0.7-1.1-1-1.7c-0.3-0.6-1-0.9-1.6-0.8c-0.8,0.2-1.3,0.9-1.2,1.7c0,0.2,0.1,0.3,0.2,0.5l1,1.8
		C18.2,13.2,18.2,13.2,18.2,13.3z"/>
	<path class="st1" d="M8.3,34c0.8-1.9,1.8-3.7,2.9-5.4c0.6-1.1,1.3-2.2,1.9-3.3c0.1-0.1,0.2-0.1,0.3-0.1h9.8c0.2,0,0.2,0.1,0.1,0.2
		S23,26,22.8,26.3l-4.4,7.6c-0.7,1.1-1.3,2.2-2,3.4c-0.2,0.2-0.3,0.5-0.3,0.7c0,0,0,0.1-0.1,0.1s-0.1,0-0.1,0
		c-0.3,0.6-0.6,1.1-0.9,1.7L12,45.2c0,0-0.1,0.1-0.1,0.1c-3.4-2.6-4.8-7.1-3.6-11.2C8.3,34.1,8.3,34.1,8.3,34z"/>
</g>
<g>
	<path class="st5" d="M62.6,11.4c2.6,0,4.2,1.3,4.2,3.6s-1.5,3.8-4.2,3.8h-2.4v3.2h-1.8V11.4H62.6z M60.2,17.1h2.3
		c1.6,0,2.5-0.7,2.5-2.1s-0.9-2-2.5-2h-2.3V17.1z"/>
	<path class="st5" d="M70.1,15.5c0.5-1,1.6-1.7,2.8-1.6v1.7c-1.3-0.2-2.5,0.7-2.7,2c0,0.1,0,0.1,0,0.2v4.1h-1.7v-8h1.7L70.1,15.5z"
		/>
	<path class="st5" d="M76.2,11.6c0,0.6-0.4,1-1,1s-1-0.4-1-1s0.4-1,1-1S76.2,11.1,76.2,11.6z M74.3,21.9v-8H76v8H74.3z"/>
	<path class="st5" d="M85.2,15.1l-0.9,1.1c-0.6-0.6-1.4-0.9-2.3-0.9c-1.4,0.1-2.4,1.4-2.3,2.8c0.1,1.2,1.1,2.2,2.3,2.3
		c0.9,0,1.8-0.3,2.3-1l1,1c-0.8,1-2.1,1.6-3.4,1.5c-2.2,0-4-1.8-4-4.1c0-2.2,1.8-4,4-4C83.1,13.8,84.3,14.2,85.2,15.1z"/>
	<path class="st5" d="M93.8,18.5h-6c0.2,1.2,1.3,2,2.5,2c0.8,0,1.7-0.3,2.3-0.9l0.9,1c-0.9,0.9-2.1,1.4-3.3,1.3
		c-2.1,0.1-3.9-1.5-4.1-3.6c0-0.1,0-0.3,0-0.4c-0.1-2.1,1.5-4,3.7-4.1c0.1,0,0.2,0,0.3,0C92.8,13.9,94,15.7,93.8,18.5z M92.3,17.3
		c0-1.1-0.9-2.1-2-2.1c-0.1,0-0.1,0-0.2,0c-1.2,0-2.2,0.9-2.3,2.1H92.3z"/>
	<path class="st5" d="M101.2,13.4l-1.2,8.5h-2.4l1.2-8.5h-3.2l0.3-2h8.8l-0.3,2L101.2,13.4z"/>
	<path class="st5" d="M111.6,21.9l-1-5.3l-2.5,5.3h-2.3l-1.8-8h2.4l1,5.8l2.6-5.8h2.3l0.9,5.8l2.6-5.8h2.3l-4.1,8H111.6z"/>
	<path class="st5" d="M125.5,18.5h-5.8c0.1,1,0.9,1.7,1.9,1.6c0,0,0,0,0,0c0.8,0,1.6-0.3,2.2-0.8l1,1.2c-1,0.9-2.3,1.4-3.7,1.4
		c-2.6,0-4-1.7-3.6-4.1c0.3-2.4,2.3-4.2,4.8-4.1C125.1,13.7,126.1,15.6,125.5,18.5z M123.5,17.2c0.2-0.8-0.3-1.5-1.1-1.7
		c-0.1,0-0.3,0-0.5,0c-1,0-1.9,0.8-2.1,1.8H123.5z"/>
	<path class="st5" d="M131.4,20.9c-0.7,0.7-1.7,1.1-2.7,1.1c-1.7,0-2.6-1.1-2.4-2.5s1.4-2.4,3.4-2.4h2.2v-0.2
		c0.1-0.9-0.4-1.3-1.5-1.3c-0.9,0-1.7,0.3-2.5,0.7l-0.5-1.6c1.2-0.6,2.5-0.9,3.8-0.9c2.2,0,3.3,1.1,3,2.9l-0.7,5.3h-2.3L131.4,20.9z
		 M131.6,19.1l0.1-0.7h-1.8c-0.9,0-1.4,0.3-1.5,0.9s0.3,1,1.1,1C130.4,20.4,131.2,19.9,131.6,19.1z"/>
	<path class="st5" d="M138.2,19.7l-0.3,2.2h-2.3l1.6-11.1h2.3l-0.9,6.1l3.4-3h2.6l-3.4,3.1l2.4,5h-2.7l-1.5-3.3L138.2,19.7z"/>
	<path class="st5" d="M152.3,18.5h-5.8c0.1,1,0.9,1.7,1.8,1.6c0,0,0,0,0,0c0.8,0,1.6-0.3,2.2-0.8l1,1.2c-1,0.9-2.3,1.4-3.6,1.4
		c-2.6,0-4-1.7-3.6-4.1c0.3-2.4,2.3-4.2,4.8-4.1C151.9,13.7,152.9,15.6,152.3,18.5z M150.3,17.2c0.2-0.8-0.3-1.5-1.1-1.7
		c-0.2,0-0.3,0-0.5,0c-1,0.1-1.8,0.8-2.1,1.8H150.3z"/>
	<path class="st5" d="M156.6,15.3c0.6-1,1.7-1.5,2.9-1.6l-0.3,2.2c-1.4-0.3-2.7,0.6-3,2c0,0,0,0.1,0,0.1l-0.5,3.9h-2.3l1.2-8.1h2.3
		L156.6,15.3z"/>
	<path class="st5" d="M166.5,14.6l-1,1.6c-0.7-0.5-1.5-0.7-2.4-0.8c-0.5,0-1,0.2-1,0.6c-0.2,1.2,4.2,0.6,3.8,3.4
		c-0.2,1.7-1.8,2.5-3.6,2.5c-1.2,0.1-2.4-0.3-3.4-1.1l1-1.6c0.7,0.6,1.7,1,2.7,1c0.6,0,1.1-0.2,1.1-0.6c0.2-1.3-4.1-0.6-3.7-3.4
		c0.2-1.7,1.8-2.5,3.6-2.5C164.6,13.7,165.6,14,166.5,14.6z"/>
</g>
<g>
	<path d="M66.5,29.5v2.1c-0.6,0.4-1.5,0.7-2.4,0.7c-1.8,0-3.2-1.2-3.2-2.8c0-1.6,1.4-2.8,3.3-2.8c0.9,0,1.8,0.3,2.4,0.8l-0.6,0.7
		c-0.5-0.4-1.1-0.6-1.8-0.6c-1.3,0-2.2,0.9-2.2,2c0,1.1,1,2,2.3,2c0.5,0,1-0.1,1.4-0.4v-1.6H66.5z"/>
	<path d="M70.7,30.5c-0.1,0-0.2,0-0.3,0H69v1.7h-1v-5.6h2.5c1.6,0,2.5,0.7,2.5,1.9c0,0.9-0.5,1.5-1.3,1.8l1.4,1.9h-1.2L70.7,30.5z
		 M70.4,29.7c1,0,1.5-0.4,1.5-1.1c0-0.7-0.5-1.1-1.5-1.1H69v2.2H70.4z"/>
	<path d="M80.3,29.4c0,1.6-1.4,2.8-3.3,2.8c-1.8,0-3.3-1.2-3.3-2.8c0-1.6,1.4-2.8,3.3-2.8C78.9,26.6,80.3,27.8,80.3,29.4z
		 M74.8,29.4c0,1.1,1,2,2.2,2s2.2-0.9,2.2-2s-1-2-2.2-2C75.9,27.5,74.8,28.3,74.8,29.4z"/>
	<path d="M86.6,32.2l-1.5-4.4l-1.5,4.4h-1.1l-2-5.6h1.1l1.5,4.5l1.5-4.5l1,0l1.5,4.5l1.5-4.5h1.1l-2.1,5.6H86.6z"/>
	<path d="M95.3,32.2h-1v-1.8l-2.3-3.8h1l1.8,2.7l1.7-2.7h1.1l-2.3,3.7V32.2z"/>
	<path d="M104,29.4c0,1.6-1.4,2.8-3.3,2.8c-1.8,0-3.3-1.2-3.3-2.8c0-1.6,1.4-2.8,3.3-2.8C102.6,26.6,104,27.8,104,29.4z M98.5,29.4
		c0,1.1,1,2,2.2,2s2.2-0.9,2.2-2s-1-2-2.2-2C99.5,27.5,98.5,28.3,98.5,29.4z"/>
	<path d="M110.3,29.9c0,1.5-1,2.4-2.7,2.4s-2.7-0.9-2.7-2.4v-3.3h1v3.3c0,0.9,0.6,1.5,1.7,1.5c1,0,1.6-0.6,1.6-1.5v-3.3h1V29.9z"/>
	<path d="M114.6,30.5c-0.1,0-0.2,0-0.3,0h-1.5v1.7h-1v-5.6h2.5c1.6,0,2.5,0.7,2.5,1.9c0,0.9-0.5,1.5-1.3,1.8l1.4,1.9h-1.2
		L114.6,30.5z M114.3,29.7c1,0,1.5-0.4,1.5-1.1c0-0.7-0.5-1.1-1.5-1.1h-1.5v2.2H114.3z"/>
	<path d="M123.1,26.6c1.3,0,2.1,0.5,2.1,1.4c0,0.6-0.4,1.1-1.1,1.2c0.8,0.1,1.3,0.7,1.3,1.4c0,1-0.9,1.5-2.2,1.5h-2.7v-5.6H123.1z
		 M121.5,29h1.6c0.7,0,1.1-0.3,1.1-0.8c0-0.5-0.4-0.7-1.1-0.7h-1.6V29z M121.5,31.4h1.6c0.8,0,1.3-0.3,1.3-0.8
		c0-0.5-0.5-0.8-1.3-0.8h-1.6V31.4z"/>
	<path d="M131.9,29.9c0,1.5-1,2.4-2.7,2.4s-2.7-0.9-2.7-2.4v-3.3h1v3.3c0,0.9,0.6,1.5,1.7,1.5c1,0,1.6-0.6,1.6-1.5v-3.3h1V29.9z"/>
	<path d="M137.6,27.2l-0.4,0.8c-0.7-0.4-1.3-0.5-1.8-0.5c-0.6,0-1,0.2-1,0.6c0,1.2,3.3,0.6,3.3,2.6c0,1-1,1.6-2.3,1.6
		c-1,0-1.9-0.4-2.5-0.9l0.4-0.8c0.6,0.5,1.4,0.8,2.1,0.8c0.7,0,1.2-0.2,1.2-0.7c0-1.2-3.3-0.6-3.3-2.5c0-1,0.9-1.6,2.2-1.6
		C136.2,26.6,137,26.8,137.6,27.2z"/>
	<path d="M138.8,32.2v-5.6h1v5.6H138.8z"/>
	<path d="M145.8,32.2l-3.3-4v4h-1v-5.6h1l3.3,4v-4h1v5.6H145.8z"/>
	<path d="M149.5,27.5V29h3v0.8h-3v1.5h3.5v0.8h-4.5v-5.6h4.4v0.8H149.5z"/>
	<path d="M158.4,27.2L158,28c-0.7-0.4-1.3-0.5-1.8-0.5c-0.6,0-1,0.2-1,0.6c0,1.2,3.3,0.6,3.3,2.6c0,1-1,1.6-2.3,1.6
		c-1,0-1.9-0.4-2.5-0.9l0.4-0.8c0.6,0.5,1.4,0.8,2.1,0.8c0.7,0,1.2-0.2,1.2-0.7c0-1.2-3.3-0.6-3.3-2.5c0-1,0.9-1.6,2.2-1.6
		C157.1,26.6,157.9,26.8,158.4,27.2z"/>
	<path d="M163.9,27.2l-0.4,0.8c-0.7-0.4-1.3-0.5-1.8-0.5c-0.6,0-1,0.2-1,0.6c0,1.2,3.3,0.6,3.3,2.6c0,1-1,1.6-2.3,1.6
		c-1,0-1.9-0.4-2.5-0.9l0.4-0.8c0.6,0.5,1.4,0.8,2.1,0.8c0.7,0,1.2-0.2,1.2-0.7c0-1.2-3.3-0.6-3.3-2.5c0-1,0.9-1.6,2.2-1.6
		C162.5,26.6,163.3,26.8,163.9,27.2z"/>
</g>
</svg>
