<?xml version="1.0" encoding="utf-8"?>
<!-- Generator: Adobe Illustrator 22.1.0, SVG Export Plug-In . SVG Version: 6.00 Build 0)  -->
<svg version="1.1" id="Layer_1" xmlns="http://www.w3.org/2000/svg" xmlns:xlink="http://www.w3.org/1999/xlink" x="0px" y="0px"
	 viewBox="0 0 166.4 47.6" style="enable-background:new 0 0 166.4 47.6;" xml:space="preserve">
<style type="text/css">
	.st0{fill:#010101;}
	.st1{fill:#2EA853;}
	.st2{fill:#F5BB2D;}
	.st3{fill:#567CBE;}
	.st4{fill:#E94637;}
	.st5{fill:#231F20;}
</style>
<title>PTlogo</title>
<g>
	<path class="st0" d="M26,44.2c-3.7,3.9-9.7,4.5-14,1.3l-0.1-0.1c0-0.1,0-0.2,0.1-0.2l1.6-2.8l2.4-4.2c0,0,0-0.1,0.1-0.1
		c0.1-0.1,0.2-0.1,0.2,0c0,0.5,0.2,0.9,0.5,1.2c0.6,0.5,1.5,0.4,2.1-0.2c0-0.1,0.1-0.1,0.1-0.2c0.4-0.6,0.8-1.3,1.1-1.9
		c1.5-2.5,2.9-5,4.3-7.5l2.3-4c0.1-0.2,0.3-0.3,0.6-0.3h14.8c0.5,0,1-0.2,1.3-0.7c0.3-0.4,0.3-1,0.1-1.4c-0.2-0.5-0.7-0.8-1.2-0.8
		H25.5c-0.1,0-0.3,0-0.4,0c-0.1-0.1,0-0.2,0-0.3c0.2-0.4,0.5-0.8,0.7-1.2c1.4-2.4,2.8-4.8,4.2-7.3c0.1-0.1,0.1-0.2,0.3-0.3
		c0.3,0,0.6,0,0.9,0c0.9,0,1.7,0,2.6,0c1.2,0,2.5,0,3.7,0s2.5,0,3.8,0c0.7,0,1.4,0.1,2.1,0.2c0.1,0,0.2,0,0.3,0.1
		c0.8,0.2,1.6,0.5,2.4,0.9c3,1.5,5.2,4.4,5.7,7.7c0.8,5.4-2.6,10.5-7.9,11.8h-0.1C43.6,34,43.5,34,43.3,34c-0.6,0.1-1.3,0.2-1.9,0.2
		c-2.5,0-4.9,0-7.4,0h-1.7c-0.2,0-0.3,0.1-0.4,0.2c-0.2,0.4-0.5,0.9-0.7,1.3c-0.8,1.4-1.6,2.8-2.4,4.1c-0.6,1.1-1.2,2.2-1.9,3.2
		c-0.2,0.3-0.4,0.6-0.6,0.8C26.2,44,26.1,44.1,26,44.2z"/>
	<path class="st1" d="M30.2,13.3l-2.3,4.1L25.3,22l-0.2,0.3c-0.1,0.1-0.3,0.1-0.4,0.1h-9.4c-0.1,0-0.2,0-0.3,0
		c-0.2-0.1-0.1-0.2,0-0.3c0.3-0.5,0.5-0.9,0.8-1.4l3.8-6.6c0.2-0.3,0.3-0.5,0.4-0.8c0.3-0.5,0.6-1,0.9-1.5c0.9-1.6,1.8-3.2,2.8-4.8
		c0.6-1.1,1.2-2.1,1.9-3.2c0.1-0.2,0.3-0.4,0.5-0.5c0.6-0.7,1.4-1.3,2.1-1.8c4.9-3,11.3-1.5,14.4,3.4c1.6,2.5,2,5.7,1.1,8.5v0.1
		c-1.5-0.2-3-0.3-4.4-0.2c-1.7,0-3.5,0-5.2,0h-0.3c0-0.1,0-0.2,0.1-0.2l1.1-1.9c0.3-0.4,0.4-0.8,0.3-1.3c-0.1-0.6-0.6-1-1.2-1.1
		c-0.6-0.1-1.2,0.2-1.5,0.7c-0.6,1-1.2,2.1-1.8,3.1l-0.3,0.6C30.3,13.2,30.3,13.3,30.2,13.3z"/>
	<path class="st2" d="M20,13.3c-0.5,0.8-0.9,1.6-1.4,2.4L14.9,22v0.1c0,0-0.2,0.1-0.3,0.1H9.9c-0.8,0-1.5,0.6-1.5,1.4
		s0.6,1.5,1.4,1.5h2.9c0.1,0,0.2,0,0.3,0c0.1,0.1,0,0.2,0,0.2L12.2,27c-1,1.7-1.9,3.3-2.9,5c-0.3,0.6-0.6,1.1-0.8,1.7
		c0,0.1,0,0.2-0.1,0.2c-4.1-0.8-7.3-4-8.1-8.1c-0.8-3.6,0.4-7.4,3.2-9.8c1.3-1.3,3-2.1,4.8-2.5h0.1c0.1-0.1,0.2-0.1,0.3-0.1
		c0.6-0.1,1.3-0.2,1.9-0.2c2.5,0,5,0,7.4,0h0.3c0.5,0,1,0,1.5,0C19.8,13.3,19.9,13.3,20,13.3z"/>
	<path class="st3" d="M33.8,34.2H34h6c1.2,0.1,2.4,0,3.6-0.2c0.2,0.6,0.3,1.2,0.4,1.9c0.2,1.6,0.1,3.3-0.5,4.8
		c-1.2,3.5-4.2,6-7.8,6.7c-3.5,0.8-7.2-0.4-9.6-3L26,44.3c1-1.2,1.8-2.5,2.5-3.8c0.8-1.4,1.7-2.9,2.5-4.3c0-0.1,0.1-0.2,0.1-0.2
		s0.2,0.1,0.2,0.2c0.3,0.6,0.7,1.1,1,1.7c0.3,0.6,1,0.9,1.6,0.8c0.8-0.2,1.3-0.9,1.2-1.8c0-0.2-0.1-0.3-0.2-0.5l-1-1.8
		C33.9,34.4,33.8,34.3,33.8,34.2z"/>
	<path class="st4" d="M18.2,13.3h-7.5c-0.7,0-1.5,0-2.2,0.2H8.3c-0.3-1-0.5-2.1-0.5-3.2c0-4.9,3.5-9.1,8.3-10.1
		c3.5-0.8,7.2,0.4,9.6,3L26,3.4c-1.1,1.4-2,2.8-2.8,4.4c-0.8,1.3-1.5,2.6-2.3,3.9l-0.1,0.1c-0.1,0-0.2-0.1-0.2-0.2
		c-0.3-0.6-0.7-1.1-1-1.7c-0.3-0.6-1-0.9-1.6-0.8c-0.8,0.2-1.3,0.9-1.2,1.7c0,0.2,0.1,0.3,0.2,0.5l1,1.8
		C18.2,13.2,18.2,13.2,18.2,13.3z"/>
	<path class="st1" d="M8.3,34c0.8-1.9,1.8-3.7,2.9-5.4c0.6-1.1,1.3-2.2,1.9-3.3c0.1-0.1,0.2-0.1,0.3-0.1h9.8c0.2,0,0.2,0.1,0.1,0.2
		S23,26,22.8,26.3l-4.4,7.6c-0.7,1.1-1.3,2.2-2,3.4c-0.2,0.2-0.3,0.5-0.3,0.7c0,0,0,0.1-0.1,0.1s-0.1,0-0.1,0
		c-0.3,0.6-0.6,1.1-0.9,1.7l-3,5.4l-0.1,0.1C8.5,42.7,7.1,38.2,8.3,34C8.3,34.1,8.3,34.1,8.3,34z"/>
</g>
<g>
	<path class="st5" d="M58.6,11c2.7,0,4.3,1.3,4.3,3.7s-1.6,3.9-4.3,3.9h-2.5V22h-1.9V11H58.6z M56.1,16.9h2.4c1.7,0,2.6-0.7,2.6-2.2
		s-0.9-2.1-2.6-2.1h-2.4V16.9z"/>
	<path class="st5" d="M66.3,15.3c0.5-1,1.7-1.8,2.9-1.7v1.8c-1.3-0.2-2.6,0.7-2.8,2.1c0,0.1,0,0.1,0,0.2v4.2h-1.8v-8.3h1.8
		L66.3,15.3z"/>
	<path class="st5" d="M72.6,11.2c0,0.6-0.4,1-1,1s-1-0.4-1-1c0-0.6,0.4-1,1-1S72.6,10.7,72.6,11.2z M70.7,21.9v-8.3h1.8v8.3H70.7z"
		/>
	<path class="st5" d="M81.9,14.9L81,16c-0.6-0.6-1.4-0.9-2.4-0.9c-1.4,0.1-2.5,1.4-2.4,2.9c0.1,1.2,1.1,2.3,2.4,2.4
		c0.9,0,1.9-0.3,2.4-1l1,1c-0.8,1-2.2,1.7-3.5,1.6c-2.3,0-4.1-1.9-4.1-4.2c0-2.3,1.9-4.1,4.1-4.1C79.7,13.5,81,13.9,81.9,14.9z"/>
	<path class="st5" d="M90.8,18.4h-6.2c0.2,1.2,1.3,2.1,2.6,2.1c0.8,0,1.8-0.3,2.4-0.9l0.9,1c-0.9,0.9-2.2,1.4-3.4,1.3
		c-2.2,0.1-4-1.6-4.2-3.7c0-0.1,0-0.3,0-0.4c-0.1-2.2,1.6-4.1,3.8-4.2c0.1,0,0.2,0,0.3,0C89.8,13.6,91,15.5,90.8,18.4z M89.3,17.1
		c0-1.1-0.9-2.2-2.1-2.2c-0.1,0-0.1,0-0.2,0c-1.2,0-2.3,0.9-2.4,2.2H89.3z"/>
	<path class="st5" d="M98.5,13.1l-1.2,8.8h-2.5l1.2-8.8h-3.3L93,11h9.1l-0.3,2.1H98.5z"/>
	<path class="st5" d="M109.2,21.9l-1-5.5l-2.6,5.5h-2.4l-1.9-8.3h2.5l1,6l2.7-6h2.4l0.9,6l2.7-6h2.4l-4.2,8.3
		C111.7,21.9,109.2,21.9,109.2,21.9z"/>
	<path class="st5" d="M123.6,18.4h-6c0.1,1,0.9,1.8,2,1.7l0,0c0.8,0,1.7-0.3,2.3-0.8l1,1.2c-1,0.9-2.4,1.4-3.8,1.4
		c-2.7,0-4.1-1.8-3.7-4.2c0.3-2.5,2.4-4.3,5-4.2C123.2,13.4,124.2,15.4,123.6,18.4z M121.5,17c0.2-0.8-0.3-1.6-1.1-1.8
		c-0.1,0-0.3,0-0.5,0c-1,0-2,0.8-2.2,1.9h3.8V17z"/>
	<path class="st5" d="M129.7,20.9c-0.7,0.7-1.8,1.1-2.8,1.1c-1.8,0-2.7-1.1-2.5-2.6s1.4-2.5,3.5-2.5h2.3v-0.2
		c0.1-0.9-0.4-1.3-1.6-1.3c-0.9,0-1.8,0.3-2.6,0.7l-0.5-1.7c1.2-0.6,2.6-0.9,3.9-0.9c2.3,0,3.4,1.1,3.1,3l-0.7,5.5h-2.4L129.7,20.9z
		 M129.9,19l0.1-0.7h-1.9c-0.9,0-1.4,0.3-1.6,0.9c-0.1,0.6,0.3,1,1.1,1C128.7,20.3,129.5,19.8,129.9,19z"/>
	<path class="st5" d="M136.7,19.6l-0.3,2.3H134l1.7-11.5h2.4l-0.9,6.3l3.5-3.1h2.7l-3.5,3.2l2.5,5.2h-2.8l-1.6-3.4L136.7,19.6z"/>
	<path class="st5" d="M151.3,18.4h-6c0.1,1,0.9,1.8,1.9,1.7l0,0c0.8,0,1.7-0.3,2.3-0.8l1,1.2c-1,0.9-2.4,1.4-3.7,1.4
		c-2.7,0-4.1-1.8-3.7-4.2c0.3-2.5,2.4-4.3,5-4.2C150.9,13.4,151.9,15.4,151.3,18.4z M149.2,17c0.2-0.8-0.3-1.6-1.1-1.8
		c-0.2,0-0.3,0-0.5,0c-1,0.1-1.9,0.8-2.2,1.9h3.8V17z"/>
	<path class="st5" d="M155.7,15.1c0.6-1,1.8-1.6,3-1.7l-0.3,2.3c-1.4-0.3-2.8,0.6-3.1,2.1v0.1l-0.5,4h-2.4l1.2-8.4h2.4L155.7,15.1z"
		/>
	<path class="st5" d="M166,14.3l-1,1.7c-0.7-0.5-1.6-0.7-2.5-0.8c-0.5,0-1,0.2-1,0.6c-0.2,1.2,4.3,0.6,3.9,3.5
		c-0.2,1.8-1.9,2.6-3.7,2.6c-1.2,0.1-2.5-0.3-3.5-1.1l1-1.7c0.7,0.6,1.8,1,2.8,1c0.6,0,1.1-0.2,1.1-0.6c0.2-1.3-4.2-0.6-3.8-3.5
		c0.2-1.8,1.9-2.6,3.7-2.6C164,13.4,165,13.7,166,14.3z"/>
</g>
<g>
	<path d="M57.9,31.2c-0.8,0-1.5-0.3-2.1-0.9c-0.6-0.6-0.9-1.3-0.9-2.1s0.3-1.5,0.9-2.1s1.3-0.9,2.1-0.9c0.8,0,1.5,0.2,2.1,0.7
		l-0.5,0.6c-0.4-0.4-0.9-0.5-1.5-0.5s-1.1,0.2-1.5,0.6c-0.4,0.4-0.6,0.9-0.6,1.6s0.2,1.1,0.6,1.5c0.4,0.4,0.9,0.6,1.5,0.6
		c0.4,0,0.8-0.1,1.2-0.3v-1.9H60v2.4C59.4,31.1,58.7,31.2,57.9,31.2z"/>
	<path d="M62.3,25.4h2c0.6,0,1.1,0.2,1.5,0.5c0.4,0.3,0.6,0.7,0.6,1.3c0,0.4-0.1,0.8-0.4,1c-0.2,0.3-0.6,0.5-1,0.6l1.4,2.4h-0.9
		l-1.4-2.3h-1.1v2.3h-0.8V25.4z M63.1,26.1v2h1.3c0.4,0,0.6-0.1,0.9-0.3c0.2-0.2,0.3-0.4,0.3-0.7s-0.1-0.6-0.3-0.7
		c-0.2-0.2-0.5-0.3-0.9-0.3H63.1z"/>
	<path d="M73.3,26.1c0.6,0.6,0.9,1.3,0.9,2.1c0,0.8-0.3,1.5-0.9,2.1c-0.6,0.6-1.3,0.9-2.1,0.9c-0.8,0-1.5-0.3-2.1-0.9
		s-0.9-1.3-0.9-2.1c0-0.8,0.3-1.5,0.9-2.1s1.3-0.9,2.1-0.9C72,25.3,72.7,25.6,73.3,26.1z M72.7,29.8c0.4-0.4,0.6-0.9,0.6-1.5
		c0-0.6-0.2-1.1-0.6-1.6c-0.4-0.4-0.9-0.6-1.5-0.6c-0.6,0-1.1,0.2-1.5,0.6c-0.4,0.4-0.6,0.9-0.6,1.6s0.2,1.1,0.6,1.5
		c0.4,0.4,0.9,0.6,1.5,0.6C71.8,30.4,72.3,30.2,72.7,29.8z"/>
	<path d="M84,25.4l-1.9,5.8h-1l-1.4-4.8l-1.4,4.8h-1l-1.9-5.8h0.9l1.4,4.8l1.4-4.8h1l1.4,4.8l1.5-4.8H84z"/>
	<path d="M90.4,29.2l-2.1-3.8h0.9l1.7,3l1.7-3h0.9l-2.1,3.8v1.9h-0.8V29.2z"/>
	<path d="M99.5,26.1c0.6,0.6,0.9,1.3,0.9,2.1c0,0.8-0.3,1.5-0.9,2.1c-0.6,0.6-1.3,0.9-2.1,0.9s-1.5-0.3-2.1-0.9s-0.9-1.3-0.9-2.1
		c0-0.8,0.3-1.5,0.9-2.1s1.3-0.9,2.1-0.9S98.9,25.6,99.5,26.1z M98.9,29.8c0.4-0.4,0.6-0.9,0.6-1.5c0-0.6-0.2-1.1-0.6-1.6
		c-0.4-0.4-0.9-0.6-1.5-0.6c-0.6,0-1.1,0.2-1.5,0.6c-0.4,0.4-0.6,0.9-0.6,1.6s0.2,1.1,0.6,1.5c0.4,0.4,0.9,0.6,1.5,0.6
		C98,30.4,98.5,30.2,98.9,29.8z"/>
	<path d="M102.5,25.4h0.8v3.5c0,0.5,0.1,0.8,0.4,1.1c0.3,0.3,0.6,0.4,1,0.4c0.4,0,0.8-0.1,1-0.4s0.4-0.7,0.4-1.1v-3.5h0.8v3.5
		c0,0.7-0.2,1.3-0.6,1.7c-0.4,0.4-1,0.6-1.6,0.6c-0.7,0-1.2-0.2-1.6-0.6c-0.4-0.4-0.6-1-0.6-1.7V25.4z"/>
	<path d="M109.5,25.4h2c0.6,0,1.1,0.2,1.5,0.5c0.4,0.3,0.6,0.7,0.6,1.3c0,0.4-0.1,0.8-0.4,1s-0.6,0.5-1,0.6l1.4,2.4h-0.9l-1.4-2.3
		h-1.1v2.3h-0.8V25.4z M110.3,26.1v2h1.3c0.4,0,0.6-0.1,0.9-0.3c0.2-0.2,0.3-0.4,0.3-0.7s-0.1-0.6-0.3-0.7c-0.2-0.2-0.5-0.3-0.9-0.3
		H110.3z"/>
	<path d="M118.9,25.4h2.3c0.5,0,0.9,0.1,1.3,0.4s0.5,0.7,0.5,1.1c0,0.3-0.1,0.6-0.3,0.8s-0.4,0.4-0.6,0.5c0.3,0.1,0.6,0.3,0.8,0.5
		s0.3,0.5,0.3,0.9c0,0.4-0.2,0.8-0.5,1.1c-0.3,0.3-0.8,0.5-1.3,0.5h-2.4V25.4z M119.7,26.1v1.8h1.4c0.3,0,0.5-0.1,0.7-0.3
		s0.3-0.4,0.3-0.6s-0.1-0.5-0.3-0.6s-0.4-0.3-0.7-0.3H119.7z M119.7,28.5v1.9h1.5c0.3,0,0.6-0.1,0.8-0.3c0.2-0.2,0.3-0.4,0.3-0.7
		c0-0.3-0.1-0.5-0.3-0.7c-0.2-0.2-0.5-0.3-0.8-0.3H119.7z"/>
	<path d="M125.2,25.4h0.8v3.5c0,0.5,0.1,0.8,0.4,1.1c0.3,0.3,0.6,0.4,1,0.4c0.4,0,0.8-0.1,1-0.4s0.4-0.7,0.4-1.1v-3.5h0.8v3.5
		c0,0.7-0.2,1.3-0.6,1.7c-0.4,0.4-1,0.6-1.6,0.6c-0.7,0-1.2-0.2-1.6-0.6c-0.4-0.4-0.6-1-0.6-1.7V25.4z"/>
	<path d="M135.4,26.7c-0.1-0.2-0.3-0.4-0.6-0.5c-0.3-0.1-0.5-0.2-0.8-0.2c-0.3,0-0.6,0.1-0.8,0.2c-0.2,0.1-0.3,0.3-0.3,0.6
		c0,0.2,0.1,0.4,0.2,0.5c0.2,0.1,0.4,0.2,0.6,0.3c0.2,0.1,0.5,0.2,0.8,0.3c0.3,0.1,0.5,0.2,0.8,0.3c0.2,0.1,0.4,0.3,0.6,0.5
		c0.2,0.2,0.2,0.5,0.2,0.8c0,0.5-0.2,0.9-0.6,1.2c-0.4,0.3-0.9,0.5-1.5,0.5c-1,0-1.7-0.3-2.2-1l0.6-0.5c0.4,0.5,0.9,0.8,1.6,0.8
		c0.4,0,0.7-0.1,0.9-0.2s0.3-0.4,0.3-0.6c0-0.3-0.1-0.5-0.3-0.6c-0.2-0.2-0.5-0.3-0.8-0.4c-0.3-0.1-0.6-0.2-0.9-0.3
		c-0.3-0.1-0.6-0.3-0.8-0.5c-0.2-0.2-0.3-0.5-0.3-0.9c0-0.5,0.2-0.8,0.6-1.1s0.9-0.4,1.5-0.4c0.4,0,0.8,0.1,1.2,0.3
		c0.4,0.2,0.6,0.4,0.8,0.6L135.4,26.7z"/>
	<path d="M138.1,25.4h0.8v5.8h-0.8V25.4z"/>
	<path d="M142.3,26.7v4.4h-0.8v-5.8h0.9l3.2,4.5v-4.5h0.8v5.8h-0.9L142.3,26.7z"/>
	<path d="M148.9,25.4h3.7v0.8h-2.9v1.7h2.5v0.8h-2.5v1.7h2.9v0.8h-3.7V25.4z"/>
	<path d="M157.8,26.7c-0.1-0.2-0.3-0.4-0.6-0.5c-0.3-0.1-0.5-0.2-0.8-0.2c-0.3,0-0.6,0.1-0.8,0.2c-0.2,0.1-0.3,0.3-0.3,0.6
		c0,0.2,0.1,0.4,0.2,0.5c0.2,0.1,0.4,0.2,0.6,0.3c0.2,0.1,0.5,0.2,0.8,0.3c0.3,0.1,0.5,0.2,0.8,0.3c0.2,0.1,0.4,0.3,0.6,0.5
		c0.2,0.2,0.2,0.5,0.2,0.8c0,0.5-0.2,0.9-0.6,1.2c-0.4,0.3-0.9,0.5-1.5,0.5c-1,0-1.7-0.3-2.2-1l0.6-0.5c0.4,0.5,0.9,0.8,1.6,0.8
		c0.4,0,0.7-0.1,0.9-0.2s0.3-0.4,0.3-0.6c0-0.3-0.1-0.5-0.3-0.6c-0.2-0.2-0.5-0.3-0.8-0.4c-0.3-0.1-0.6-0.2-0.9-0.3
		c-0.3-0.1-0.6-0.3-0.8-0.5c-0.2-0.2-0.3-0.5-0.3-0.9c0-0.5,0.2-0.8,0.6-1.1s0.9-0.4,1.5-0.4c0.4,0,0.8,0.1,1.2,0.3
		c0.4,0.2,0.6,0.4,0.8,0.6L157.8,26.7z"/>
	<path d="M163.8,26.7c-0.1-0.2-0.3-0.4-0.6-0.5c-0.3-0.1-0.5-0.2-0.8-0.2c-0.3,0-0.6,0.1-0.8,0.2c-0.2,0.1-0.3,0.3-0.3,0.6
		c0,0.2,0.1,0.4,0.2,0.5c0.2,0.1,0.4,0.2,0.6,0.3c0.2,0.1,0.5,0.2,0.8,0.3c0.3,0.1,0.5,0.2,0.8,0.3c0.2,0.1,0.4,0.3,0.6,0.5
		c0.2,0.2,0.2,0.5,0.2,0.8c0,0.5-0.2,0.9-0.6,1.2c-0.4,0.3-0.9,0.5-1.5,0.5c-1,0-1.7-0.3-2.2-1l0.6-0.5c0.4,0.5,0.9,0.8,1.6,0.8
		c0.4,0,0.7-0.1,0.9-0.2s0.3-0.4,0.3-0.6c0-0.3-0.1-0.5-0.3-0.6c-0.2-0.2-0.5-0.3-0.8-0.4c-0.3-0.1-0.6-0.2-0.9-0.3
		c-0.3-0.1-0.6-0.3-0.8-0.5c-0.2-0.2-0.3-0.5-0.3-0.9c0-0.5,0.2-0.8,0.6-1.1s0.9-0.4,1.5-0.4c0.4,0,0.8,0.1,1.2,0.3
		c0.4,0.2,0.6,0.4,0.8,0.6L163.8,26.7z"/>
</g>
</svg>
