<svg id="Layer_1" data-name="Layer 1" xmlns="http://www.w3.org/2000/svg" viewBox="0 0 48.76 13.94"><defs><style>.cls-1{fill:#010101;}.cls-2{fill:#2ea853;}.cls-3{fill:#f5bb2d;}.cls-4{fill:#567cbe;}.cls-5{fill:#e94637;}.cls-6{fill:#231f20;}</style></defs><title>PTlogo</title><path class="cls-1" d="M7.86,15.9a2.85,2.85,0,0,1-1.34.85,3,3,0,0,1-2.77-.48,0,0,0,0,1,0,0s0-.05,0-.07l.46-.81.7-1.23s0,0,0,0,0,0,.06,0a.43.43,0,0,0,.8.25c.11-.18.21-.37.32-.56.42-.73.84-1.46,1.27-2.19L8,10.45a.17.17,0,0,1,.16-.1h4.37a.41.41,0,0,0,.38-.19.4.4,0,0,0,0-.42.42.42,0,0,0-.36-.24h-5s0-.06,0-.09a3.79,3.79,0,0,1,.2-.34L9,6.92s0-.07.08-.07h3.22a3.05,3.05,0,0,1,.6.06s.08,0,.1,0a3.16,3.16,0,0,1,.71.25A3,3,0,0,1,15.4,9.46a3.06,3.06,0,0,1-2.32,3.44h0s-.06,0-.09,0a2.76,2.76,0,0,1-.57.06H9.71a.12.12,0,0,0-.11.07c-.07.12-.14.25-.22.37l-.7,1.22c-.18.31-.35.63-.55.94l-.19.24A.17.17,0,0,1,7.86,15.9Z" transform="translate(-0.24 -2.95)"/><path class="cls-2" d="M9.1,6.86,8.41,8.05c-.26.44-.52.89-.77,1.34a.22.22,0,0,0,0,.08s-.07,0-.11,0H4.62s0-.05,0-.08L4.84,9,6,7.08a1.59,1.59,0,0,0,.13-.22c.09-.15.18-.3.26-.45.28-.47.54-.94.81-1.4a6.6,6.6,0,0,1,.57-.91A.41.41,0,0,1,7.86,4a3.11,3.11,0,0,1,.63-.52,3.06,3.06,0,0,1,4.56,3.48s0,0,0,0a6.27,6.27,0,0,0-1.3-.08h-1.6s0-.05,0-.07c.1-.19.21-.38.32-.56a.49.49,0,0,0,.08-.37.45.45,0,0,0-.36-.34.46.46,0,0,0-.43.2c-.18.31-.35.62-.53.92l-.09.17Z" transform="translate(-0.24 -2.95)"/><path class="cls-3" d="M6.09,6.87c-.13.23-.26.47-.4.7L4.61,9.43s0,0,0,0-.07,0-.1,0H3.15a.44.44,0,0,0-.44.36.42.42,0,0,0,.41.5h.94s0,.05,0,.07l-.26.45c-.28.49-.57,1-.85,1.47a2.94,2.94,0,0,0-.23.51.06.06,0,0,1,0,.06A3.06,3.06,0,0,1,.3,10.54a3,3,0,0,1,.94-2.87,2.82,2.82,0,0,1,1.41-.73l0,0,.09,0a2.56,2.56,0,0,1,.55,0H6S6.08,6.84,6.09,6.87Z" transform="translate(-0.24 -2.95)"/><path class="cls-4" d="M10.16,13H12a4.61,4.61,0,0,0,1-.08,3.73,3.73,0,0,1,.12.56A2.83,2.83,0,0,1,13,14.88a2.93,2.93,0,0,1-2.28,1.95,3,3,0,0,1-2.81-.89l0,0a6.39,6.39,0,0,0,.74-1.12c.24-.43.48-.85.73-1.27,0,0,0,0,0-.06s0,0,.06.06.19.32.28.49a.44.44,0,0,0,.48.23.43.43,0,0,0,.29-.64l-.3-.53S10.14,13,10.16,13Z" transform="translate(-0.24 -2.95)"/><path class="cls-5" d="M5.57,6.86H3.38a2.81,2.81,0,0,0-.65.06h0A3.08,3.08,0,0,1,5,3a3,3,0,0,1,2.83.87L7.86,4A7.74,7.74,0,0,0,7,5.23L6.38,6.37l0,0a.09.09,0,0,1-.06-.06C6.2,6.18,6.11,6,6,5.85a.44.44,0,0,0-.47-.24.44.44,0,0,0-.29.65l.3.53S5.58,6.83,5.57,6.86Z" transform="translate(-0.24 -2.95)"/><path class="cls-2" d="M2.68,12.92a11,11,0,0,1,.84-1.59l.55-.95s0,0,.08,0H7c.05,0,.06,0,0,.06l-.13.23L5.65,12.86l-.57,1a.56.56,0,0,0-.09.21,0,0,0,0,1,0,0s0,0,0,0l-.27.48c-.31.54-.61,1.08-.91,1.62a.08.08,0,0,0,0,0A3,3,0,0,1,2.65,14.6a3,3,0,0,1,0-1.63A.09.09,0,0,0,2.68,12.92Z" transform="translate(-0.24 -2.95)"/><path class="cls-6" d="M18.55,6.29c.78,0,1.22.38,1.22,1s-.44,1.1-1.22,1.1h-.7v.92h-.52V6.29ZM17.85,8h.68c.48,0,.74-.2.74-.62s-.26-.6-.74-.6h-.68Z" transform="translate(-0.24 -2.95)"/><path class="cls-6" d="M20.76,7.49A.86.86,0,0,1,21.57,7v.48a.71.71,0,0,0-.81.65V9.36h-.51V7h.51Z" transform="translate(-0.24 -2.95)"/><path class="cls-6" d="M22.53,6.36a.3.3,0,1,1-.59,0,.3.3,0,1,1,.59,0Zm-.54,3V7h.5V9.36Z" transform="translate(-0.24 -2.95)"/><path class="cls-6" d="M25.16,7.39l-.28.33a.87.87,0,0,0-.66-.27.7.7,0,0,0-.7.75.7.7,0,0,0,.7.75.9.9,0,0,0,.69-.28l.28.28a1.21,1.21,0,0,1-1,.43A1.12,1.12,0,0,1,23,8.2,1.12,1.12,0,0,1,24.19,7,1.21,1.21,0,0,1,25.16,7.39Z" transform="translate(-0.24 -2.95)"/><path class="cls-6" d="M27.68,8.39H25.91a.71.71,0,0,0,.73.58.9.9,0,0,0,.66-.27l.27.29a1.29,1.29,0,0,1-1,.39A1.13,1.13,0,0,1,25.4,8.2,1.13,1.13,0,0,1,26.59,7C27.41,7,27.74,7.54,27.68,8.39ZM27.24,8a.6.6,0,0,0-.65-.61A.68.68,0,0,0,25.9,8Z" transform="translate(-0.24 -2.95)"/><path class="cls-6" d="M29.86,6.88,29.5,9.36h-.69l.35-2.48h-.93l.08-.59h2.57l-.08.59Z" transform="translate(-0.24 -2.95)"/><path class="cls-6" d="M32.91,9.36,32.63,7.8,31.9,9.36h-.68L30.69,7h.69l.29,1.69L32.42,7h.67l.27,1.69L34.12,7h.67l-1.2,2.36Z" transform="translate(-0.24 -2.95)"/><path class="cls-6" d="M37,8.39h-1.7a.5.5,0,0,0,.54.47.94.94,0,0,0,.64-.25l.3.36a1.48,1.48,0,0,1-1.07.42,1,1,0,0,1-1.06-1.2A1.36,1.36,0,0,1,36,7C36.86,7,37.17,7.53,37,8.39ZM36.41,8A.42.42,0,0,0,36,7.47a.68.68,0,0,0-.63.52Z" transform="translate(-0.24 -2.95)"/><path class="cls-6" d="M38.71,9.09a1.05,1.05,0,0,1-.79.31c-.51,0-.77-.31-.71-.74s.43-.71,1-.72h.65v0c0-.25-.11-.4-.43-.4a1.82,1.82,0,0,0-.74.21l-.14-.46A2.44,2.44,0,0,1,38.67,7c.63,0,.95.32.88.85l-.22,1.54h-.66Zm.07-.53,0-.22h-.53c-.26,0-.4.08-.43.27s.1.3.33.3A.63.63,0,0,0,38.78,8.56Z" transform="translate(-0.24 -2.95)"/><path class="cls-6" d="M40.71,8.72l-.1.64h-.67l.47-3.26h.67l-.25,1.8,1-.9h.77l-1,.91.7,1.45h-.8l-.43-1Z" transform="translate(-0.24 -2.95)"/><path class="cls-6" d="M44.83,8.39H43.14a.5.5,0,0,0,.54.47.92.92,0,0,0,.63-.25l.31.36a1.51,1.51,0,0,1-1.07.42,1,1,0,0,1-1.07-1.2A1.38,1.38,0,0,1,43.88,7C44.71,7,45,7.53,44.83,8.39ZM44.26,8a.42.42,0,0,0-.45-.52.68.68,0,0,0-.63.52Z" transform="translate(-0.24 -2.95)"/><path class="cls-6" d="M46.1,7.43A1,1,0,0,1,47,7l-.1.64a.75.75,0,0,0-.87.62l-.16,1.13h-.68L45.48,7h.68Z" transform="translate(-0.24 -2.95)"/><path class="cls-6" d="M49,7.23l-.3.46A1.46,1.46,0,0,0,48,7.47c-.15,0-.28,0-.29.17,0,.36,1.22.18,1.09,1a1,1,0,0,1-1.06.74,1.43,1.43,0,0,1-1-.33l.28-.46a1.25,1.25,0,0,0,.78.3c.18,0,.31-.06.33-.19.05-.37-1.2-.17-1.08-1a1,1,0,0,1,1-.74A1.63,1.63,0,0,1,49,7.23Z" transform="translate(-0.24 -2.95)"/><path class="cls-6" d="M18.54,12.91a.73.73,0,0,1-.54-.22.8.8,0,0,1,0-1.1.74.74,0,0,1,.54-.23.83.83,0,0,1,.52.17l-.1.11a.71.71,0,0,0-.42-.14.58.58,0,0,0-.44.19.64.64,0,0,0,.45,1.09.87.87,0,0,0,.37-.08v-.55h.14v.64A1,1,0,0,1,18.54,12.91Z" transform="translate(-0.24 -2.95)"/><path class="cls-6" d="M19.84,11.39h.52a.62.62,0,0,1,.37.11.42.42,0,0,1,.14.32.45.45,0,0,1-.1.28.53.53,0,0,1-.29.14l.41.65h-.16l-.4-.64H20v.64h-.14Zm.14.12v.62h.39a.37.37,0,0,0,.26-.09.31.31,0,0,0,0-.44.37.37,0,0,0-.26-.09Z" transform="translate(-0.24 -2.95)"/><path class="cls-6" d="M22.8,11.59a.77.77,0,0,1,0,1.1.73.73,0,0,1-.54.22.71.71,0,0,1-.53-.22.77.77,0,0,1,0-1.1.72.72,0,0,1,.53-.23A.74.74,0,0,1,22.8,11.59Zm-.1,1a.65.65,0,0,0,0-.9.58.58,0,0,0-.44-.19.56.56,0,0,0-.43.19.65.65,0,0,0,0,.9.56.56,0,0,0,.43.19A.58.58,0,0,0,22.7,12.59Z" transform="translate(-0.24 -2.95)"/><path class="cls-6" d="M25.68,11.39l-.49,1.5H25l-.4-1.32-.41,1.32H24l-.48-1.5h.15l.42,1.32.4-1.32h.18l.41,1.32.41-1.32Z" transform="translate(-0.24 -2.95)"/><path class="cls-6" d="M27.64,12.38l-.57-1h.16l.48.84.48-.84h.16l-.57,1v.51h-.14Z" transform="translate(-0.24 -2.95)"/><path class="cls-6" d="M30.1,11.59a.77.77,0,0,1,0,1.1.7.7,0,0,1-.54.22.73.73,0,0,1-.53-.22.8.8,0,0,1,0-1.1.74.74,0,0,1,.53-.23A.71.71,0,0,1,30.1,11.59Zm-.1,1a.65.65,0,0,0,0-.9.56.56,0,0,0-.44-.19.57.57,0,0,0-.43.19.65.65,0,0,0,0,.9.57.57,0,0,0,.43.19A.56.56,0,0,0,30,12.59Z" transform="translate(-0.24 -2.95)"/><path class="cls-6" d="M31.06,11.39h.13v.94a.44.44,0,0,0,.12.32.39.39,0,0,0,.31.13.41.41,0,0,0,.31-.12.46.46,0,0,0,.12-.33v-.94h.14v.94a.61.61,0,0,1-.16.42.61.61,0,0,1-.82,0,.6.6,0,0,1-.15-.42Z" transform="translate(-0.24 -2.95)"/><path class="cls-6" d="M33,11.39h.52a.58.58,0,0,1,.37.11.39.39,0,0,1,.14.32.4.4,0,0,1-.1.28.5.5,0,0,1-.28.14l.4.65h-.16l-.39-.64h-.36v.64H33Zm.14.12v.62h.39a.36.36,0,0,0,.26-.09.29.29,0,0,0,0-.44.36.36,0,0,0-.26-.09Z" transform="translate(-0.24 -2.95)"/><path class="cls-6" d="M35.72,11.39h.59a.49.49,0,0,1,.31.11.39.39,0,0,1,.13.28.38.38,0,0,1-.07.21.52.52,0,0,1-.17.12.38.38,0,0,1,.21.13.32.32,0,0,1,.09.24.38.38,0,0,1-.14.29.44.44,0,0,1-.32.12h-.63Zm.14.13v.54h.43a.33.33,0,0,0,.22-.08.25.25,0,0,0,.09-.19.27.27,0,0,0-.09-.2.32.32,0,0,0-.22-.07Zm0,.66v.58h.47a.36.36,0,0,0,.23-.08.27.27,0,0,0,0-.42.36.36,0,0,0-.23-.08Z" transform="translate(-0.24 -2.95)"/><path class="cls-6" d="M37.51,11.39h.14v.94a.48.48,0,0,0,.11.32.4.4,0,0,0,.31.13.41.41,0,0,0,.31-.12.46.46,0,0,0,.12-.33v-.94h.14v.94a.57.57,0,0,1-.16.42.53.53,0,0,1-.41.16.54.54,0,0,1-.41-.16.6.6,0,0,1-.15-.42Z" transform="translate(-0.24 -2.95)"/><path class="cls-6" d="M40.28,11.67a.48.48,0,0,0-.17-.13.56.56,0,0,0-.23,0,.39.39,0,0,0-.25.07.2.2,0,0,0-.1.18.2.2,0,0,0,.09.17.76.76,0,0,0,.22.11l.26.08a.55.55,0,0,1,.22.14.4.4,0,0,1,0,.56.57.57,0,0,1-.39.11.79.79,0,0,1-.32-.06.71.71,0,0,1-.23-.18l.1-.1a.57.57,0,0,0,.45.21.45.45,0,0,0,.28-.07.25.25,0,0,0,.11-.21.26.26,0,0,0-.07-.17.44.44,0,0,0-.16-.1l-.21-.08-.22-.08a.38.38,0,0,1-.16-.12.37.37,0,0,1-.06-.21.32.32,0,0,1,.13-.27.62.62,0,0,1,.37-.11.68.68,0,0,1,.29.06.54.54,0,0,1,.2.16Z" transform="translate(-0.24 -2.95)"/><path class="cls-6" d="M41.13,11.39h.14v1.5h-.14Z" transform="translate(-0.24 -2.95)"/><path class="cls-6" d="M42.24,11.61v1.28H42.1v-1.5h.15l1,1.28V11.39h.14v1.5h-.15Z" transform="translate(-0.24 -2.95)"/><path class="cls-6" d="M44.17,11.39h.94v.13h-.8v.55H45v.13h-.7v.56h.8v.13h-.94Z" transform="translate(-0.24 -2.95)"/><path class="cls-6" d="M46.64,11.67a.59.59,0,0,0-.17-.13.59.59,0,0,0-.23,0,.39.39,0,0,0-.25.07.2.2,0,0,0-.1.18.2.2,0,0,0,.09.17.76.76,0,0,0,.22.11l.26.08a.55.55,0,0,1,.22.14.4.4,0,0,1,0,.56.58.58,0,0,1-.39.11.79.79,0,0,1-.32-.06.71.71,0,0,1-.23-.18l.1-.1a.57.57,0,0,0,.45.21.45.45,0,0,0,.28-.07.25.25,0,0,0,.11-.21.26.26,0,0,0-.07-.17.44.44,0,0,0-.16-.1l-.22-.08L46,12.07a.35.35,0,0,1-.23-.33.33.33,0,0,1,.14-.27.6.6,0,0,1,.37-.11.72.72,0,0,1,.29.06.54.54,0,0,1,.2.16Z" transform="translate(-0.24 -2.95)"/><path class="cls-6" d="M48.31,11.67a.53.53,0,0,0-.16-.13.59.59,0,0,0-.23,0,.42.42,0,0,0-.26.07.22.22,0,0,0-.1.18.2.2,0,0,0,.09.17.82.82,0,0,0,.23.11l.26.08a.74.74,0,0,1,.22.14.37.37,0,0,1,.09.25.37.37,0,0,1-.15.31.56.56,0,0,1-.38.11.81.81,0,0,1-.33-.06.67.67,0,0,1-.22-.18l.1-.1a.54.54,0,0,0,.45.21.47.47,0,0,0,.28-.07.24.24,0,0,0,.1-.21.22.22,0,0,0-.07-.17.37.37,0,0,0-.16-.1l-.21-.08a1,1,0,0,1-.21-.08.41.41,0,0,1-.17-.12.37.37,0,0,1-.06-.21.31.31,0,0,1,.14-.27.57.57,0,0,1,.36-.11.65.65,0,0,1,.29.06.47.47,0,0,1,.2.16Z" transform="translate(-0.24 -2.95)"/></svg>