<svg id="Layer_1" data-name="Layer 1" xmlns="http://www.w3.org/2000/svg" viewBox="0 0 31.2 31.2"><defs></defs><title>Account_Onclick</title><path d="M31.4,16.4a15.6,15.6,0,0,0-31.2,0A16,16,0,0,0,5.7,28.3h.2a15.1,15.1,0,0,0,10,3.6,15.7,15.7,0,0,0,9.9-3.5c.1-.1.3-.2.3-.3a15.6,15.6,0,0,0,5.3-11.8Zm-29.8,0A14.2,14.2,0,1,1,26,26.3a10.8,10.8,0,0,0-5.2-7.2A6.2,6.2,0,1,0,9.7,15.3,6.5,6.5,0,0,0,11,19.1a10.7,10.7,0,0,0-5.3,7.2,14.3,14.3,0,0,1-4.1-9.9ZM11,15.3a4.9,4.9,0,0,1,4.8-4.8,4.8,4.8,0,0,1,4.8,4.8,4.7,4.7,0,0,1-4.8,4.8A4.8,4.8,0,0,1,11,15.3ZM7,27.5a9,9,0,0,1,5-7.3,5.8,5.8,0,0,0,3.8,1.3,6.5,6.5,0,0,0,3.9-1.3,9.3,9.3,0,0,1,5.1,7.2A14.1,14.1,0,0,1,7,27.5Zm0,0" transform="translate(-0.2 -0.8)"/></svg>