<svg id="Layer_1" data-name="Layer 1" xmlns="http://www.w3.org/2000/svg" viewBox="0 0 47.91 43.94">
  <defs>
    <style>
      .cls-1 {
        fill: #010101;
      }

      .cls-2 {
        fill: #2ea853;
      }

      .cls-3 {
        fill: #f5bb2d;
      }

      .cls-4 {
        fill: #567cbe;
      }

      .cls-5 {
        fill: #e94637;
      }
    </style>
  </defs>
  <title>Demo</title>
  <g>
    <path class="cls-1" d="M24.07,42.8a9.69,9.69,0,0,1-13,1.16L11,43.89c0-.09,0-.15.06-.21.47-.86,1-1.71,1.44-2.56l2.19-3.88.08-.14c.09-.1.15-.1.17,0a1.48,1.48,0,0,0,.51,1.13,1.34,1.34,0,0,0,2-.32c.36-.58.68-1.18,1-1.77,1.33-2.3,2.65-4.61,4-6.91.71-1.22,1.41-2.44,2.11-3.67a.54.54,0,0,1,.52-.29H38.89a1.33,1.33,0,0,0,1.2-.61,1.28,1.28,0,0,0,.09-1.33,1.31,1.31,0,0,0-1.13-.76H23.59a1,1,0,0,1-.35,0c-.12-.1,0-.19,0-.27.2-.37.42-.73.63-1.09l3.88-6.72c.06-.11.11-.22.24-.24a7.48,7.48,0,0,1,.82,0c.8,0,1.6,0,2.4,0,1.15,0,2.29,0,3.44,0h3.49a10.21,10.21,0,0,1,1.91.18.59.59,0,0,1,.31.12,10.25,10.25,0,0,1,2.21.8,9.51,9.51,0,0,1,5.23,7.15,9.65,9.65,0,0,1-7.31,10.85l-.13,0a.49.49,0,0,1-.29.11,9,9,0,0,1-1.79.18H29.89a.35.35,0,0,0-.34.21c-.23.39-.45.79-.69,1.18-.75,1.26-1.46,2.55-2.21,3.82-.58,1-1.11,2-1.75,3-.18.26-.39.51-.59.76A.66.66,0,0,1,24.07,42.8Z" transform="translate(-0.04 -1.99)"/>
    <path class="cls-2" d="M28,14.3,25.79,18q-1.21,2.12-2.44,4.22l-.15.28c-.1.1-.23.07-.35.07H14.17a1.61,1.61,0,0,1-.31,0c-.17-.06-.09-.16,0-.25l.73-1.28q1.75-3,3.5-6.06c.14-.24.28-.47.41-.71.28-.47.55-1,.82-1.43.86-1.47,1.7-2.94,2.56-4.41A21.59,21.59,0,0,1,23.61,5.6a1.51,1.51,0,0,1,.46-.48,10.61,10.61,0,0,1,2-1.63,9.65,9.65,0,0,1,14.37,11,.44.44,0,0,0,0,.1,19.42,19.42,0,0,0-4.1-.22H31.24c0-.08,0-.15.05-.21.34-.6.69-1.19,1-1.78a1.54,1.54,0,0,0,.25-1.16,1.42,1.42,0,0,0-1.13-1.06,1.35,1.35,0,0,0-1.36.63c-.58,1-1.12,1.94-1.67,2.9l-.3.51A.33.33,0,0,1,28,14.3Z" transform="translate(-0.04 -1.99)"/>
    <path class="cls-3" d="M18.49,14.32c-.42.74-.84,1.49-1.27,2.23l-3.39,5.86s0,.09-.05.13-.21.06-.32.06H9.23a1.35,1.35,0,0,0-.12,2.7c.9,0,1.79,0,2.69,0a1,1,0,0,1,.29,0c.12.08,0,.15,0,.21-.27.48-.54.94-.81,1.41C10.38,28.5,9.48,30,8.6,31.59a9.6,9.6,0,0,0-.73,1.6c0,.08,0,.18-.13.21A9.64,9.64,0,0,1,.25,25.91a9.39,9.39,0,0,1,2.94-9.06,9.22,9.22,0,0,1,4.45-2.31l.11,0c.07-.08.17-.08.27-.1a8.37,8.37,0,0,1,1.73-.15c2.29,0,4.57,0,6.86,0h1.66C18.35,14.24,18.44,14.23,18.49,14.32Z" transform="translate(-0.04 -1.99)"/>
    <path class="cls-4" d="M31.29,33.61h5.78a14.8,14.8,0,0,0,3.32-.22,12.79,12.79,0,0,1,.36,1.74,9.63,9.63,0,0,1-7.7,10.6,9.38,9.38,0,0,1-8.86-2.81l-.12-.11a19.68,19.68,0,0,0,2.3-3.56c.78-1.32,1.54-2.66,2.32-4a.47.47,0,0,1,.12-.19c.12,0,.14.11.19.18l.9,1.56a1.39,1.39,0,0,0,1.51.74,1.37,1.37,0,0,0,.9-2c-.31-.56-.64-1.1-1-1.65C31.32,33.78,31.25,33.71,31.29,33.61Z" transform="translate(-0.04 -1.99)"/>
    <path class="cls-5" d="M16.85,14.31H9.94a10.18,10.18,0,0,0-2.06.18H7.75a10,10,0,0,1-.43-3A9.58,9.58,0,0,1,15,2.2a9.48,9.48,0,0,1,8.9,2.74l.18.18a24.2,24.2,0,0,0-2.59,4.05c-.7,1.19-1.38,2.39-2.07,3.59l-.09.13c-.1,0-.13-.12-.18-.2l-.91-1.58a1.39,1.39,0,0,0-1.49-.74,1.37,1.37,0,0,0-.91,2.05c.31.55.63,1.1,1,1.65C16.82,14.14,16.88,14.21,16.85,14.31Z" transform="translate(-0.04 -1.99)"/>
    <path class="cls-2" d="M7.74,33.4a33.12,33.12,0,0,1,2.64-5c.56-1,1.16-2,1.74-3,.06-.08.15-.06.24-.06h9c.17,0,.2.06.13.21s-.26.47-.4.71l-4,7c-.6,1-1.21,2.06-1.8,3.1A1.58,1.58,0,0,0,15,37s0,.1-.08.1-.08,0-.09,0L14,38.67l-2.88,5.1-.06.12A9.7,9.7,0,0,1,7.71,33.55Z" transform="translate(-0.04 -1.99)"/>
  </g>
</svg>
