<svg id="Layer_1" data-name="Layer 1" xmlns="http://www.w3.org/2000/svg" viewBox="0 0 31.6 31.6"><title>Home</title><path d="M31.2,14,26.4,9.2V3a1,1,0,0,0-.9-1H21.8a1,1,0,0,0-.9,1v.7L18.2,1a2.7,2.7,0,0,0-3.9,0L1.2,14a2.7,2.7,0,0,0,0,3.9,2.9,2.9,0,0,0,2.9.7V30.9a.9.9,0,0,0,.9.9H27.4a.9.9,0,0,0,.9-.9V18.6a2.9,2.9,0,0,0,2.9-.7,2.8,2.8,0,0,0,.8-2A2.7,2.7,0,0,0,31.2,14ZM22.7,3.9h1.9V7.4L22.7,5.5ZM19,30H13.5V22.4H19Zm7.4,0H20.9V21.5a.9.9,0,0,0-.9-.9H12.5a.9.9,0,0,0-.9.9V30H5.9V17.1L16.2,6.9,26.4,17.1Zm3.5-13.4a.9.9,0,0,1-1.3,0L16.9,4.9a1.1,1.1,0,0,0-1.3,0L3.8,16.6a.9.9,0,0,1-1.3,0,.9.9,0,0,1,0-1.3l13.1-13a.9.9,0,0,1,1.3,0l13,13A1,1,0,0,1,29.9,16.6Z" transform="translate(-0.4 -0.2)"/></svg>