<svg id="Layer_1" data-name="Layer 1" xmlns="http://www.w3.org/2000/svg" viewBox="0 0 46.98 44.68">
  <title>ProductOverview</title>
  <path d="M42,6.16H38.16V3.33a1.1,1.1,0,0,0-2.2,0V6.16H12.53V3.33a1.1,1.1,0,0,0-2.2,0V6.16H6a5.5,5.5,0,0,0-5.5,5.5V41.41A5.5,5.5,0,0,0,6,46.91H42a5.5,5.5,0,0,0,5.5-5.5V11.66A5.5,5.5,0,0,0,42,6.16Zm3.3,35.25a3.3,3.3,0,0,1-3.3,3.3H6a3.3,3.3,0,0,1-3.3-3.3V20.64H45.29V41.41Zm-42.58-23V11.66A3.3,3.3,0,0,1,6,8.36h4.32v2.83a1.1,1.1,0,0,0,2.2,0V8.36H36v2.83a1.1,1.1,0,1,0,2.2,0V8.36H42a3.3,3.3,0,0,1,3.3,3.3v6.78Zm0,0" transform="translate(-0.51 -2.23)"/>
</svg>
