<svg id="Layer_1" data-name="Layer 1" xmlns="http://www.w3.org/2000/svg" viewBox="0 0 31.4 25.8"><title>ProductData</title><path d="M25,26.5H6.3a1.4,1.4,0,0,0-1.5,1.3,1.4,1.4,0,0,0,1.5,1.3H25a1.4,1.4,0,0,0,1.5-1.3A1.4,1.4,0,0,0,25,26.5Zm0,0" transform="translate(-0.1 -4.3)"/><path d="M4.4,15.8v3.7a1.2,1.2,0,0,0,1.2,1.2,1.1,1.1,0,0,0,1.1-1.2V15.8a1.1,1.1,0,0,0-1.1-1.1,1.1,1.1,0,0,0-1.2,1.1Zm0,0" transform="translate(-0.1 -4.3)"/><path  d="M8.2,14.3v5.2a1.1,1.1,0,1,0,2.2,0V14.3a1.1,1.1,0,1,0-2.2,0Zm0,0" transform="translate(-0.1 -4.3)"/><path  d="M11.9,12.8v6.7a1.1,1.1,0,1,0,2.2,0V12.8a1.1,1.1,0,1,0-2.2,0Zm0,0" transform="translate(-0.1 -4.3)"/><path  d="M30.1,4.3a1.5,1.5,0,0,1,1.4,1.5v16h0L29.7,20h-.1a6.9,6.9,0,0,0,1-3.7,7.8,7.8,0,0,0-1.9-5.1h0v-4H3V22.1H18.1A7.9,7.9,0,0,0,23,23.9a8.1,8.1,0,0,0,3.7-.9h0l2,1.9a.1.1,0,0,0,.1.1H1.6A1.5,1.5,0,0,1,.1,23.6V5.8A1.5,1.5,0,0,1,1.6,4.3Z" transform="translate(-0.1 -4.3)"/><path d="M28.6,21a.4.4,0,0,0-.5-.2l-.3-.3a6.7,6.7,0,0,0,1.6-4.2,6.4,6.4,0,0,0-1.9-4.5A6,6,0,0,0,23,9.9a6,6,0,0,0-4.5,1.9,6.3,6.3,0,0,0,0,9A6.3,6.3,0,0,0,23,22.6,6.1,6.1,0,0,0,27.2,21l.3.3a.7.7,0,0,0,.2.6l2.2,2.2.4.2.5-.2a.6.6,0,0,0,0-.9Zm-2-1.2A5.1,5.1,0,0,1,23,21.3a4.9,4.9,0,0,1-3.6-1.5,4.7,4.7,0,0,1-1.5-3.5,4.8,4.8,0,0,1,1.5-3.6A4.9,4.9,0,0,1,23,11.2a5,5,0,0,1,5,5.1,5,5,0,0,1-1.4,3.5Zm0,0" transform="translate(-0.1 -4.3)"/></svg>