<svg id="Layer_1" data-name="Layer 1" xmlns="http://www.w3.org/2000/svg" viewBox="0 0 31.25 25.36">
  <title>Products</title>
  <path d="M.49,8.67V22.46a3.82,3.82,0,0,0,3.82,3.81H27.93a3.82,3.82,0,0,0,3.81-3.81V8.67A3.64,3.64,0,0,0,28.11,5H23l-.13-.53A4.63,4.63,0,0,0,18.37.91H13.85a4.65,4.65,0,0,0-4.54,3.6L9.19,5H4.12A3.64,3.64,0,0,0,.49,8.67ZM9.82,6.6a.78.78,0,0,0,.76-.6l.26-1.14a3.08,3.08,0,0,1,3-2.39h4.52a3.08,3.08,0,0,1,3,2.39L21.65,6a.78.78,0,0,0,.76.6h5.7a2.07,2.07,0,0,1,2.06,2.07V22.46a2.25,2.25,0,0,1-2.25,2.25H4.31a2.25,2.25,0,0,1-2.25-2.25V8.67A2.07,2.07,0,0,1,4.12,6.6Zm0,0" transform="translate(-0.49 -0.91)"/>
  <path d="M6.83,9.94a1,1,0,1,1-1-1,1,1,0,0,1,1,1Zm0,0" transform="translate(-0.49 -0.91)"/>
  <path d="M16.12,22.26A6.56,6.56,0,1,0,9.55,15.7a6.58,6.58,0,0,0,6.57,6.56Zm0-11.56a5,5,0,1,1-5,5,5,5,0,0,1,5-5Zm0,0" transform="translate(-0.49 -0.91)"/>
</svg>
