<?xml version="1.0" encoding="utf-8"?>
<!-- Generator: Adobe Illustrator 22.1.0, SVG Export Plug-In . SVG Version: 6.00 Build 0)  -->
<svg version="1.1" id="Layer_1" xmlns="http://www.w3.org/2000/svg" xmlns:xlink="http://www.w3.org/1999/xlink" x="0px" y="0px"
	 viewBox="0 0 31.4 25.8" style="enable-background:new 0 0 31.4 25.8;" xml:space="preserve">
<title>ProductData</title>
<path d="M4.3,11.5v3.7c0,0.7,0.5,1.2,1.2,1.2c0,0,0,0,0,0c0.6,0,1.1-0.5,1.1-1.1c0,0,0-0.1,0-0.1v-3.7c0-0.6-0.5-1.1-1.1-1.1
	c0,0,0,0,0,0c-0.6-0.1-1.1,0.4-1.2,1C4.3,11.4,4.3,11.5,4.3,11.5z"/>
<path d="M8.1,10v5.2c0,0.6,0.5,1.1,1.1,1.1c0.6,0,1.1-0.5,1.1-1.1c0,0,0,0,0,0V10c0-0.6-0.5-1.1-1.1-1.1C8.6,8.9,8.1,9.4,8.1,10
	C8.1,10,8.1,10,8.1,10z"/>
<path d="M11.8,8.5v6.7c0,0.6,0.5,1.1,1.1,1.1c0.6,0,1.1-0.5,1.1-1.1c0,0,0,0,0,0V8.5c0-0.6-0.5-1.1-1.1-1.1
	C12.3,7.4,11.8,7.9,11.8,8.5C11.8,8.5,11.8,8.5,11.8,8.5z"/>
<path d="M30,0c0.8,0.1,1.4,0.7,1.4,1.5v16l0,0L29.9,16l0.1-0.3c0.7-1.1,0.9-3.1,0.9-4.4c0.1,0.1,0-3.3-1.3-4.7l0-0.5l-0.1-4.4
	L1.8,1.9L1.7,19L18,19.1c1.4,1.1,3,1.2,4.8,1.2c1.3,0,2.5-1.1,3.6-1.7l0.2,0l2,1.9c0,0.1,0,0.1,0.1,0.1l0,0H1.5
	c-0.8,0-1.4-0.6-1.5-1.4V1.5C0,0.7,0.7,0,1.5,0l0,0H30z"/>
<path d="M28.5,16.7c-0.1-0.2-0.3-0.3-0.5-0.2l-0.3-0.3c1-1.2,1.6-2.7,1.6-4.2c0-1.7-0.7-3.3-1.9-4.5c-1.2-1.2-2.8-1.9-4.5-1.9
	c-1.7,0-3.3,0.7-4.5,1.9c-2.5,2.4-2.5,6.4-0.1,8.9c0,0,0.1,0.1,0.1,0.1c1.2,1.2,2.8,1.8,4.5,1.8c1.6,0,3.1-0.6,4.2-1.6l0.3,0.3
	c0,0.2,0,0.4,0.2,0.6l2.2,2.2l0.4,0.2l0.5-0.2c0.2-0.2,0.3-0.6,0.1-0.8c0,0,0,0-0.1-0.1L28.5,16.7z M26.5,15.5c-1,1-2.2,1.5-3.6,1.5
	c-1.4,0-2.7-0.5-3.6-1.5c-1-0.9-1.5-2.2-1.5-3.5c0-1.4,0.5-2.7,1.5-3.6c0.9-1,2.2-1.5,3.6-1.5c2.8,0,5,2.2,5,5c0,0,0,0.1,0,0.1
	C27.9,13.3,27.4,14.6,26.5,15.5z"/>
<path d="M25.5,24.1H6.2c-0.5,0-0.9-0.4-0.9-0.9v0c0-0.5,0.4-0.9,0.9-0.9h19.4c0.5,0,0.9,0.4,0.9,0.9v0C26.4,23.7,26,24.1,25.5,24.1z
	"/>
</svg>
