<svg id="Layer_1" data-name="Layer 1" xmlns="http://www.w3.org/2000/svg" viewBox="0 0 30.7 30.7"><title>Reports</title><path  d="M31.6,9.3,25.1.6a.8.8,0,0,0-.7-.3.9.9,0,0,0-.7.3L17.3,9.3a.8.8,0,0,0-.1.9c.1.4.4.5.8.5h2.3v4.4a4.2,4.2,0,0,0-1.5-.4H17.2A3.3,3.3,0,0,0,13.9,18v1.9a4,4,0,0,0-1.5-.3H10.7a3.3,3.3,0,0,0-3.3,3.3v1.8a3.3,3.3,0,0,0-1.5-.3H4.3A3.3,3.3,0,0,0,1,27.7v2.4a.9.9,0,0,0,.9.9H27.6a.9.9,0,0,0,.9-.9V10.7h2.3c.4,0,.7-.1.8-.5a.8.8,0,0,0,0-.9ZM2.8,27.7a1.5,1.5,0,0,1,1.5-1.5H5.9a1.5,1.5,0,0,1,1.5,1.5v1.5H2.8Zm6.4,0V22.9a1.5,1.5,0,0,1,1.5-1.5h1.7a1.5,1.5,0,0,1,1.5,1.5v6.3H9.2Zm6.5-4.8V18a1.5,1.5,0,0,1,1.5-1.5h1.6A1.5,1.5,0,0,1,20.3,18V29.2H15.7Zm11.9-14a.9.9,0,0,0-.9.9V29.2H22.1V9.8a.9.9,0,0,0-.9-.9H19.8l4.6-6.2,4.7,6.2Zm0,0" transform="translate(-1 -0.3)"/></svg>