<svg id="Layer_1" data-name="Layer 1" xmlns="http://www.w3.org/2000/svg" viewBox="0 0 31.68 22.84">
  <title>Settings</title>
  <path d="M31.64,15.91c0,.22.08.47.13.72A5.4,5.4,0,0,0,31.64,15.91Z" transform="translate(-0.16 -1.41)"/>
  <path d="M17.88,12.64A1.28,1.28,0,0,1,17,10.42a1.16,1.16,0,0,0,.13-1.58,8.69,8.69,0,0,0-1.51-1.52,1.12,1.12,0,0,0-.72-.26,1.19,1.19,0,0,0-.87.38,1.35,1.35,0,0,1-1,.42,1.1,1.1,0,0,1-.45-.09,1.29,1.29,0,0,1-.78-1.26,1.17,1.17,0,0,0-1-1.22,9.57,9.57,0,0,0-2.14,0,1.18,1.18,0,0,0-1,1.2,1.29,1.29,0,0,1-.79,1.24,1.23,1.23,0,0,1-.44.08,1.38,1.38,0,0,1-1-.41,1.18,1.18,0,0,0-1.59-.13A9.57,9.57,0,0,0,2.26,8.78a1.16,1.16,0,0,0,.12,1.59,1.28,1.28,0,0,1,.33,1.45,1.38,1.38,0,0,1-1.3.78,1.15,1.15,0,0,0-1.18,1,9.18,9.18,0,0,0,0,2.16,1.25,1.25,0,0,0,1.25,1h.05a1.28,1.28,0,0,1,.82,2.23,1.17,1.17,0,0,0-.13,1.58,9.44,9.44,0,0,0,1.51,1.52,1.12,1.12,0,0,0,.73.26A1.16,1.16,0,0,0,5.31,22a1.38,1.38,0,0,1,1-.41,1.1,1.1,0,0,1,.45.09A1.29,1.29,0,0,1,7.54,23a1.16,1.16,0,0,0,1,1.22,10,10,0,0,0,1.1.06c.35,0,.7,0,1.05,0a1.17,1.17,0,0,0,1-1.2A1.23,1.23,0,0,1,13,21.67a1.34,1.34,0,0,1,1,.41,1.17,1.17,0,0,0,.86.38,1.19,1.19,0,0,0,.72-.25,10.06,10.06,0,0,0,1.54-1.52A1.16,1.16,0,0,0,17,19.1a1.3,1.3,0,0,1-.32-1.45,1.27,1.27,0,0,1,1.17-.78H18a1.17,1.17,0,0,0,1.15-1,9.75,9.75,0,0,0,0-2.16,1.25,1.25,0,0,0-1.24-1Zm-.08,2.88A2.62,2.62,0,0,0,15.93,20a7.42,7.42,0,0,1-1.09,1.08A2.71,2.71,0,0,0,13,20.32a2.56,2.56,0,0,0-1,.18,2.65,2.65,0,0,0-1.63,2.36,7.52,7.52,0,0,1-1.5,0,2.61,2.61,0,0,0-1.62-2.4,2.4,2.4,0,0,0-1-.19A2.74,2.74,0,0,0,4.43,21a9,9,0,0,1-1.06-1.08,2.62,2.62,0,0,0-1.83-4.44,8.79,8.79,0,0,1,0-1.54A2.71,2.71,0,0,0,4,12.34,2.62,2.62,0,0,0,3.41,9.5,7.42,7.42,0,0,1,4.5,8.42a2.74,2.74,0,0,0,1.87.73,2.55,2.55,0,0,0,1-.18A2.65,2.65,0,0,0,9,6.6a8.46,8.46,0,0,1,1.51,0A2.64,2.64,0,0,0,12.07,9a2.43,2.43,0,0,0,1,.19,2.74,2.74,0,0,0,1.87-.73A7.74,7.74,0,0,1,16,9.55,2.62,2.62,0,0,0,17.8,14a7.82,7.82,0,0,1,0,1.53Zm0,0" transform="translate(-0.16 -1.41)"/>
  <path d="M9.69,11.13a3.62,3.62,0,1,0,3.62,3.62,3.63,3.63,0,0,0-3.62-3.62Zm0,5.9A2.28,2.28,0,1,1,12,14.75,2.28,2.28,0,0,1,9.69,17Zm0,0" transform="translate(-0.16 -1.41)"/>
  <path d="M24.86,5.61a2.8,2.8,0,1,0,2.59,1.73,2.8,2.8,0,0,0-2.59-1.73Zm.63,4.31a1.68,1.68,0,0,1-.63.12,1.63,1.63,0,0,1-.62-3.14,1.59,1.59,0,0,1,.62-.12,1.63,1.63,0,0,1,.63,3.14Zm0,0" transform="translate(-0.16 -1.41)"/>
  <path d="M31.19,9.26a.9.9,0,0,1-.59-.84.92.92,0,0,1,.55-.81l.05,0a1,1,0,0,0,.6-1.16,7.46,7.46,0,0,0-.62-1.52,1,1,0,0,0-.86-.47,1.05,1.05,0,0,0-.4.07.86.86,0,0,1-.36.08.9.9,0,0,1-.62-.26.89.89,0,0,1-.17-1,1,1,0,0,0-.4-1.24,7,7,0,0,0-1.5-.63.84.84,0,0,0-.27,0,1,1,0,0,0-.9.64,1,1,0,0,1-.83.59.92.92,0,0,1-.84-.6,1,1,0,0,0-.9-.64.82.82,0,0,0-.26,0,7.26,7.26,0,0,0-1.5.61A1,1,0,0,0,21,3.3a.9.9,0,0,1-.18,1,.94.94,0,0,1-.65.24.78.78,0,0,1-.35-.07,1,1,0,0,0-.41-.09,1,1,0,0,0-.83.48,8,8,0,0,0-.64,1.52,1,1,0,0,0,.6,1.16.91.91,0,0,1,.59.84,1,1,0,0,1-.63.85.94.94,0,0,0-.57,1.15,7.4,7.4,0,0,0,.63,1.52,1,1,0,0,0,.85.47,1.11,1.11,0,0,0,.41-.08h0a1,1,0,0,1,.33-.07.87.87,0,0,1,.63.27.88.88,0,0,1,.17,1,1,1,0,0,0,.4,1.23,7.36,7.36,0,0,0,1.5.64l.27,0a1,1,0,0,0,.9-.63,1,1,0,0,1,.84-.59.89.89,0,0,1,.83.6,1,1,0,0,0,.9.64,1.09,1.09,0,0,0,.26,0,7.41,7.41,0,0,0,.79-.28,6.59,6.59,0,0,0,.71-.34,1,1,0,0,0,.41-1.23.88.88,0,0,1,.83-1.25.86.86,0,0,1,.36.08.9.9,0,0,0,.4.09,1,1,0,0,0,.83-.49,7.69,7.69,0,0,0,.64-1.51,1,1,0,0,0-.6-1.17Zm-1,1.94a2.06,2.06,0,0,0-2.63,2.61l-.43.2c-.16.06-.31.12-.48.17A2,2,0,0,0,24.82,13,2.11,2.11,0,0,0,23,14.17a6,6,0,0,1-.91-.38,2.06,2.06,0,0,0-1.94-2.74,2.14,2.14,0,0,0-.67.11,6.26,6.26,0,0,1-.38-.93,2.11,2.11,0,0,0,1.19-1.84,2.09,2.09,0,0,0-1.18-1.87,5.64,5.64,0,0,1,.39-.92A2.05,2.05,0,0,0,22.1,3,6.7,6.7,0,0,1,23,2.62a2,2,0,0,0,1.86,1.19,2.11,2.11,0,0,0,1.85-1.17,6,6,0,0,1,.91.38,2.05,2.05,0,0,0,.48,2.13,2,2,0,0,0,1.45.6,2.25,2.25,0,0,0,.68-.11,5.34,5.34,0,0,1,.38.93,2,2,0,0,0,0,3.71,5,5,0,0,1-.39.92Zm0,0" transform="translate(-0.16 -1.41)"/>
</svg>
