<svg id="Layer_1" data-name="Layer 1" xmlns="http://www.w3.org/2000/svg" viewBox="0 0 31.3 31.3"><title>Subscriptions</title><path d="M15.3,27.7A12.5,12.5,0,1,1,27.8,15.2a1.1,1.1,0,0,0,1.1,1.1,1.2,1.2,0,0,0,1.2-1.1A14.8,14.8,0,1,0,15.3,30a1.2,1.2,0,0,0,1.1-1.2,1.1,1.1,0,0,0-1.1-1.1Zm0,0" transform="translate(-0.5 -0.4)"/><path d="M15.2,22a7,7,0,1,1,6.9-6.9,1.1,1.1,0,0,0,1,1,1,1,0,0,0,1-1A9,9,0,1,0,15.2,24a1,1,0,1,0,0-2Zm0,0" transform="translate(-0.5 -0.4)"/><path d="M31.4,29.8l-3.7-3.7,2-2a1.9,1.9,0,0,0,.3-1,1.1,1.1,0,0,0-.8-.8l-8-2.6a1.1,1.1,0,0,0-1.4,1.4l2.6,8a.8.8,0,0,0,.8.7h.2a1.1,1.1,0,0,0,.8-.3l2-2,3.7,3.7a1.1,1.1,0,0,0,.7.3,1.1,1.1,0,0,0,.8-.3,1.1,1.1,0,0,0,0-1.5Zm-7.5-3.1-1.3-4.2,4.2,1.3Zm0,0" transform="translate(-0.5 -0.4)"/><path d="M15.7,15.1V12.8l.8.4a.6.6,0,0,0,.8.1c.2-.1.3-.3.1-.5a2.6,2.6,0,0,0-1.7-.9v-.6a.5.5,0,0,0-.5-.4c-.3,0-.6.2-.6.4v.6c-1.2.2-2.2,1-2.2,2s1,1.7,2.2,1.9v2.3a1.4,1.4,0,0,1-.8-.5.8.8,0,0,0-.7-.1c-.3.2-.4.4-.2.6a3,3,0,0,0,1.7.8v.7c0,.2.3.4.6.4a.5.5,0,0,0,.5-.4v-.7A2.2,2.2,0,0,0,17.9,17c0-.9-1-1.7-2.2-1.9Zm-2.1-1.2a1.2,1.2,0,0,1,1-1.1V15a1.3,1.3,0,0,1-1-1.1Zm2.1,4.2V15.9c.6.2,1.1.6,1.1,1.1s-.5.9-1.1,1.1Zm0,0" transform="translate(-0.5 -0.4)"/></svg>