<svg id="Layer_1" data-name="Layer 1" xmlns="http://www.w3.org/2000/svg" viewBox="0 0 31.6 20.11">
  <title>Users</title>
  <path d="M31.64,15.91c0,.22.08.47.13.72A5.4,5.4,0,0,0,31.64,15.91Z" transform="translate(-0.2 -2.55)"/>
  <path d="M31.8,17c0-.13,0-.25,0-.37s-.11-.5-.13-.72a6.37,6.37,0,0,0-4.09-4.51,3.61,3.61,0,1,0-5.69-3,3.57,3.57,0,0,0,1.54,3,6.24,6.24,0,0,0-2.14,1.26,7.91,7.91,0,0,0-2.93-1.6,4.58,4.58,0,1,0-4.74,0,8,8,0,0,0-2.9,1.58,6.3,6.3,0,0,0-2.11-1.23,3.62,3.62,0,1,0-4.15,0A6.33,6.33,0,0,0,.2,16.7c0,.05,0,.11,0,.16a3.17,3.17,0,0,0,1.84,1H7.84a9.42,9.42,0,0,0-.06,1.06v.43a3.33,3.33,0,0,0,3.33,3.33h9.71a3.34,3.34,0,0,0,3.34-3.33V18.9a9.43,9.43,0,0,0-.07-1.06h6.64l.36-.07.13-.05.34-.19a2,2,0,0,0,.21-.35.69.69,0,0,1,0-.16ZM22.86,8.44a2.62,2.62,0,1,1,2.66,2.61h-.1A2.6,2.6,0,0,1,22.86,8.44ZM12.37,7.13a3.58,3.58,0,1,1,3.78,3.58h-.41A3.59,3.59,0,0,1,12.37,7.13ZM3.87,8.44a2.62,2.62,0,1,1,2.66,2.61h-.1A2.61,2.61,0,0,1,3.87,8.44ZM8,16.84l-6.32.05a1.46,1.46,0,0,1-.33-.53C.93,15,3.1,13.33,3.3,13.17a6.06,6.06,0,0,1,3.15-1.12h.07a5.29,5.29,0,0,1,3.42,1.28A8.06,8.06,0,0,0,8,16.84Zm15.12,2.49a2.34,2.34,0,0,1-2.33,2.33H11.1a2.33,2.33,0,0,1-2.33-2.33V18.9a7.18,7.18,0,0,1,7-7.18h.43a7.19,7.19,0,0,1,7,7.18Zm7.4-3a1.34,1.34,0,0,1-.33.53l-6.32-.06A8.16,8.16,0,0,0,22,13.25,5.28,5.28,0,0,1,25.39,12h.08a6,6,0,0,1,3.14,1.12C28.81,13.25,31,14.92,30.54,16.28Z" transform="translate(-0.2 -2.55)"/>
</svg>
